<svg width="16" height="10" viewBox="0 0 16 10" fill="none" xmlns="http://www.w3.org/2000/svg">
<path d="M5.48075 0.489986C5.43371 0.345841 5.34177 0.220534 5.21839 0.132404C5.095 0.0442726 4.94665 -0.00205612 4.79504 0.000196619H4.73627C4.58318 -0.00339326 4.43297 0.0422568 4.30777 0.130429C4.18257 0.2186 4.08897 0.344636 4.04077 0.489986L0.0685763 9.16905C0.023083 9.25856 -0.000423198 9.35762 5.76734e-06 9.45803C5.76734e-06 9.58793 0.0516084 9.71251 0.143462 9.80436C0.235315 9.89621 0.359895 9.94782 0.489795 9.94782C0.606639 9.94949 0.720964 9.91381 0.816113 9.84597C0.911262 9.77813 0.982262 9.68169 1.01877 9.57068L2.03753 7.29316H7.42521L8.44397 9.54129C8.48413 9.65623 8.5579 9.75645 8.65572 9.82894C8.75354 9.90143 8.87089 9.94285 8.99254 9.94782C9.13283 9.94782 9.26738 9.89209 9.36658 9.79288C9.46578 9.69368 9.52151 9.55914 9.52151 9.41884C9.51563 9.32242 9.4924 9.22784 9.45294 9.13966L5.48075 0.489986ZM2.48814 6.30378L4.73627 1.29814L6.9893 6.30378H2.48814Z" fill="black"/>
<path d="M15.3005 3.39935C14.9919 3.12621 14.632 2.91715 14.2419 2.7843C13.8517 2.65145 13.4391 2.59746 13.0279 2.62548C12.2344 2.62273 11.4495 2.78973 10.7259 3.11527C10.6424 3.15391 10.5714 3.21529 10.5212 3.29239C10.4709 3.36948 10.4434 3.45918 10.4418 3.55118C10.4511 3.66927 10.5028 3.77998 10.5875 3.86283C10.6721 3.94568 10.7839 3.99505 10.9022 4.00179C10.9676 3.99919 11.0321 3.98596 11.0932 3.96261C11.6647 3.70005 12.2863 3.56469 12.9152 3.56588C14.2377 3.56588 15.0115 4.2173 15.0115 5.48585V5.73075C14.3084 5.52584 13.579 5.42517 12.8467 5.43198C11.0638 5.43198 9.83936 6.22054 9.83936 7.7046V7.72909C9.83936 9.17397 11.1618 9.92334 12.4695 9.92334C12.9593 9.93761 13.4454 9.83485 13.8875 9.6236C14.3296 9.41235 14.7149 9.09869 15.0115 8.70867V9.3356C15.0115 9.4655 15.0631 9.59008 15.155 9.68193C15.2468 9.77378 15.3714 9.82539 15.5013 9.82539C15.5682 9.82551 15.6344 9.81193 15.6958 9.7855C15.7572 9.75907 15.8126 9.72034 15.8585 9.6717C15.9044 9.62306 15.9398 9.56554 15.9626 9.50268C15.9854 9.43982 15.9951 9.37296 15.9911 9.30621V5.46626C16.0202 5.09306 15.974 4.71781 15.8554 4.36277C15.7368 4.00773 15.5481 3.68012 15.3005 3.39935V3.39935ZM15.0262 7.17073C15.0262 8.28745 13.9634 9.07601 12.6703 9.07601C11.7201 9.07601 10.9022 8.55683 10.9022 7.67521V7.64582C10.9022 6.7642 11.6369 6.17646 12.9593 6.17646C13.6589 6.17844 14.3547 6.27902 15.0262 6.47523V7.17073Z" fill="black"/>
</svg>
