<svg width="32" height="29" viewBox="0 0 32 29" fill="none" xmlns="http://www.w3.org/2000/svg">
<path d="M15.6844 10.9794C13.1341 10.9794 10.979 13.1344 10.979 15.6848C10.979 18.2351 13.1341 20.3902 15.6844 20.3902C18.2347 20.3902 20.3898 18.2351 20.3898 15.6848C20.3898 13.1344 18.2347 10.9794 15.6844 10.9794Z" fill="#F3F3F3"/>
<path d="M28.2324 4.7054H24.1763L19.9305 0.459562C19.7851 0.313628 19.6122 0.197894 19.4219 0.119024C19.2316 0.0401529 19.0276 -0.000297144 18.8216 1.64324e-06H12.5477C12.3417 -0.000297144 12.1377 0.0401529 11.9474 0.119024C11.7571 0.197894 11.5842 0.313628 11.4388 0.459562L7.19298 4.7054H3.13693C1.40691 4.7054 0 6.11231 0 7.84233V25.0954C0 26.8255 1.40691 28.2324 3.13693 28.2324H28.2324C29.9624 28.2324 31.3693 26.8255 31.3693 25.0954V7.84233C31.3693 6.11231 29.9624 4.7054 28.2324 4.7054ZM15.6846 23.527C11.4341 23.527 7.84232 19.9352 7.84232 15.6846C7.84232 11.4341 11.4341 7.84233 15.6846 7.84233C19.9352 7.84233 23.527 11.4341 23.527 15.6846C23.527 19.9352 19.9352 23.527 15.6846 23.527Z" fill="#F3F3F3"/>
</svg>
