<svg width="10" height="9" viewBox="0 0 10 9" fill="none" xmlns="http://www.w3.org/2000/svg">
<path fill-rule="evenodd" clip-rule="evenodd" d="M5 5L2.922 7.078C2.963 7.21449 3 7.351 3 7.5C3 8.32249 2.3225 9 1.5 9C0.677498 9 0 8.32249 0 7.5C0 6.67751 0.677498 6 1.5 6C1.649 6 1.7855 6.037 1.922 6.078L3.531 4.4845L1.9375 2.922C1.797 2.966 1.654 3 1.5 3C0.677498 3 0 2.32249 0 1.5C0 0.677505 0.677498 0 1.5 0C2.3225 0 3 0.677505 3 1.5C3 1.649 2.963 1.78551 2.922 1.922L4.515 3.515L7.3435 0.702499C7.794 0.253006 8.4 0 9 0H10L6 4H6.5V5H5ZM1.5 1C1.218 1 1 1.218 1 1.5C1 1.782 1.218 2 1.5 2C1.782 2 2 1.782 2 1.5C2 1.218 1.782 1 1.5 1ZM1.5 7C1.218 7 1 7.218 1 7.5C1 7.782 1.218 8 1.5 8C1.782 8 2 7.782 2 7.5C2 7.218 1.782 7 1.5 7Z" fill="#C4C4C4"/>
</svg>
