<svg width="24" height="24" viewBox="0 0 24 24" fill="none" xmlns="http://www.w3.org/2000/svg">
<path d="M20.1428 16.2858H16.7142C16.4775 16.2858 16.2856 16.4776 16.2856 16.7143V20.1429C16.2856 20.3796 16.4775 20.5715 16.7142 20.5715H20.1428C20.3795 20.5715 20.5714 20.3796 20.5714 20.1429V16.7143C20.5714 16.4776 20.3795 16.2858 20.1428 16.2858Z" fill="white"/>
<path d="M15.8574 12.8571H13.286C13.0493 12.8571 12.8574 13.049 12.8574 13.2857V15.8571C12.8574 16.0938 13.0493 16.2857 13.286 16.2857H15.8574C16.0941 16.2857 16.286 16.0938 16.286 15.8571V13.2857C16.286 13.049 16.0941 12.8571 15.8574 12.8571Z" fill="white"/>
<path d="M23.5715 20.5714H21.0001C20.7634 20.5714 20.5715 20.7632 20.5715 20.9999V23.5713C20.5715 23.808 20.7634 23.9999 21.0001 23.9999H23.5715C23.8082 23.9999 24.0001 23.808 24.0001 23.5713V20.9999C24.0001 20.7632 23.8082 20.5714 23.5715 20.5714Z" fill="white"/>
<path d="M23.5713 12.8571H21.857C21.6203 12.8571 21.4285 13.049 21.4285 13.2857V15C21.4285 15.2367 21.6203 15.4285 21.857 15.4285H23.5713C23.808 15.4285 23.9999 15.2367 23.9999 15V13.2857C23.9999 13.049 23.808 12.8571 23.5713 12.8571Z" fill="white"/>
<path d="M15.0003 21.4285H13.286C13.0493 21.4285 12.8574 21.6203 12.8574 21.857V23.5713C12.8574 23.808 13.0493 23.9999 13.286 23.9999H15.0003C15.237 23.9999 15.4288 23.808 15.4288 23.5713V21.857C15.4288 21.6203 15.237 21.4285 15.0003 21.4285Z" fill="white"/>
<path d="M22.286 0H14.5717C14.117 0 13.681 0.180612 13.3595 0.502102C13.038 0.823593 12.8574 1.25963 12.8574 1.71428V9.42856C12.8574 9.88322 13.038 10.3193 13.3595 10.6407C13.681 10.9622 14.117 11.1428 14.5717 11.1428H22.286C22.7406 11.1428 23.1767 10.9622 23.4982 10.6407C23.8197 10.3193 24.0003 9.88322 24.0003 9.42856V1.71428C24.0003 1.25963 23.8197 0.823593 23.4982 0.502102C23.1767 0.180612 22.7406 0 22.286 0ZM20.5717 7.28571C20.5717 7.39937 20.5265 7.50838 20.4462 7.58875C20.3658 7.66913 20.2568 7.71428 20.1431 7.71428H16.7146C16.6009 7.71428 16.4919 7.66913 16.4115 7.58875C16.3311 7.50838 16.286 7.39937 16.286 7.28571V3.85714C16.286 3.74348 16.3311 3.63447 16.4115 3.55409C16.4919 3.47372 16.6009 3.42857 16.7146 3.42857H20.1431C20.2568 3.42857 20.3658 3.47372 20.4462 3.55409C20.5265 3.63447 20.5717 3.74348 20.5717 3.85714V7.28571Z" fill="white"/>
<path d="M9.42856 0H1.71428C1.25963 0 0.823593 0.180612 0.502102 0.502102C0.180612 0.823593 0 1.25963 0 1.71428V9.42856C0 9.88322 0.180612 10.3193 0.502102 10.6407C0.823593 10.9622 1.25963 11.1428 1.71428 11.1428H9.42856C9.88322 11.1428 10.3193 10.9622 10.6407 10.6407C10.9622 10.3193 11.1428 9.88322 11.1428 9.42856V1.71428C11.1428 1.25963 10.9622 0.823593 10.6407 0.502102C10.3193 0.180612 9.88322 0 9.42856 0ZM7.71428 7.28571C7.71428 7.39937 7.66913 7.50838 7.58875 7.58875C7.50838 7.66913 7.39937 7.71428 7.28571 7.71428H3.85714C3.74348 7.71428 3.63447 7.66913 3.55409 7.58875C3.47372 7.50838 3.42857 7.39937 3.42857 7.28571V3.85714C3.42857 3.74348 3.47372 3.63447 3.55409 3.55409C3.63447 3.47372 3.74348 3.42857 3.85714 3.42857H7.28571C7.39937 3.42857 7.50838 3.47372 7.58875 3.55409C7.66913 3.63447 7.71428 3.74348 7.71428 3.85714V7.28571Z" fill="white"/>
<path d="M9.42856 12.8571H1.71428C1.25963 12.8571 0.823593 13.0377 0.502102 13.3592C0.180612 13.6807 0 14.1167 0 14.5714V22.2857C0 22.7403 0.180612 23.1764 0.502102 23.4979C0.823593 23.8194 1.25963 24 1.71428 24H9.42856C9.88322 24 10.3193 23.8194 10.6407 23.4979C10.9622 23.1764 11.1428 22.7403 11.1428 22.2857V14.5714C11.1428 14.1167 10.9622 13.6807 10.6407 13.3592C10.3193 13.0377 9.88322 12.8571 9.42856 12.8571ZM7.71428 20.1428C7.71428 20.2565 7.66913 20.3655 7.58875 20.4459C7.50838 20.5262 7.39937 20.5714 7.28571 20.5714H3.85714C3.74348 20.5714 3.63447 20.5262 3.55409 20.4459C3.47372 20.3655 3.42857 20.2565 3.42857 20.1428V16.7143C3.42857 16.6006 3.47372 16.4916 3.55409 16.4112C3.63447 16.3308 3.74348 16.2857 3.85714 16.2857H7.28571C7.39937 16.2857 7.50838 16.3308 7.58875 16.4112C7.66913 16.4916 7.71428 16.6006 7.71428 16.7143V20.1428Z" fill="white"/>
</svg>
