<svg width="39" height="39" viewBox="0 0 39 39" fill="none" xmlns="http://www.w3.org/2000/svg">
<path fill-rule="evenodd" clip-rule="evenodd" d="M26.1298 1.21571C26.9085 0.437291 27.9644 0 29.0655 0C30.1665 0 31.2224 0.437291 32.0011 1.21571L37.3699 6.58451C38.1483 7.36317 38.5856 8.41911 38.5856 9.52013C38.5856 10.6211 38.1483 11.6771 37.3699 12.4557L34.0772 15.7484L22.8371 4.50841L26.1298 1.21571ZM19.9015 7.44402L1.2166 26.129C0.437853 26.9075 0.00023517 27.9634 0 29.0646V34.4334C0 35.5346 0.437463 36.5907 1.21615 37.3694C1.99484 38.1481 3.05097 38.5856 4.15221 38.5856H9.52101C10.6222 38.5853 11.6781 38.1477 12.4566 37.369L31.1416 18.684L19.9015 7.44402Z" fill="white"/>
</svg>
