<svg width="77" height="88" viewBox="0 0 77 88" fill="none" xmlns="http://www.w3.org/2000/svg">
<path d="M63.0607 21.7998C63.0607 21.7998 61.6173 22.6325 62.0614 23.7983C62.0614 23.7983 63.5603 24.2424 64.1709 25.3527C64.7816 26.4629 69.5002 30.4599 69.5002 30.4599L72.9421 28.739C72.9421 28.739 71.7447 27.1406 67.9578 26.0246C67.9578 26.0246 65.7253 23.6317 64.9481 23.1876C64.171 22.7435 63.0607 21.7998 63.0607 21.7998Z" fill="#CBCDDA"/>
<path opacity="0.05" d="M63.0607 21.7998C63.0607 21.7998 61.6173 22.6325 62.0614 23.7983C62.0614 23.7983 63.5603 24.2424 64.1709 25.3527C64.7816 26.4629 69.5002 30.4599 69.5002 30.4599L72.9421 28.739C72.9421 28.739 71.7447 27.1406 67.9578 26.0246C67.9578 26.0246 65.7253 23.6317 64.9481 23.1876C64.171 22.7435 63.0607 21.7998 63.0607 21.7998Z" fill="black"/>
<path opacity="0.1" d="M13.1588 74.9405C12.4177 75.1236 11.6424 74.9098 10.8791 74.9007C10.1158 74.8917 9.22521 75.2125 9.03813 75.9526C8.78685 76.9467 9.9489 77.6961 10.9439 77.9437C14.8056 78.9049 18.8936 77.6574 22.8405 78.1662C24.5037 78.3806 26.1212 78.9053 27.7935 79.0304C31.6212 79.3168 35.3612 77.4964 39.1941 77.7016C41.1144 77.8044 42.9808 78.4142 44.9014 78.5121C49.4965 78.7462 54.0298 76.0486 58.5282 77.0152C59.7985 77.2881 60.991 77.8446 62.2496 78.1668C65.4316 78.9816 68.7814 78.2554 71.9847 77.5288C72.6207 77.3846 73.3875 77.1038 73.4659 76.4563C73.5524 75.7418 72.732 75.2938 72.0495 75.0655C64.5861 72.5695 56.5955 71.2471 48.8108 72.4008C47.0392 72.6633 45.2728 73.0535 43.4821 73.0277C39.5186 72.9706 35.8766 70.9031 31.9856 70.1469C24.6127 68.7139 17.2411 72.0571 10.4727 75.3131" fill="#9B2990"/>
<path d="M23.3777 53.7593H21.1206V72.8418C21.1206 72.8418 35.689 77.5612 49.847 72.8418V53.7593H23.3777Z" fill="#3F3D56"/>
<path d="M35.2786 56.0164C43.0978 56.0164 49.4366 55.0518 49.4366 53.8619C49.4366 52.672 43.0978 51.7075 35.2786 51.7075C27.4594 51.7075 21.1206 52.672 21.1206 53.8619C21.1206 55.0518 27.4594 56.0164 35.2786 56.0164Z" fill="#3F3D56"/>
<path opacity="0.1" d="M35.2786 56.0164C43.0978 56.0164 49.4366 55.0518 49.4366 53.8619C49.4366 52.672 43.0978 51.7075 35.2786 51.7075C27.4594 51.7075 21.1206 52.672 21.1206 53.8619C21.1206 55.0518 27.4594 56.0164 35.2786 56.0164Z" fill="black"/>
<path d="M51.7364 30.96C48.1648 44.1628 35.9312 52.3396 35.9312 52.3396C35.9312 52.3396 29.4884 39.1105 33.06 25.9077C36.6316 12.7049 48.8651 4.52814 48.8651 4.52814C48.8651 4.52814 55.3079 17.7572 51.7364 30.96Z" fill="#3F3D56"/>
<path d="M19.2451 30.96C22.8167 44.1628 35.0502 52.3396 35.0502 52.3396C35.0502 52.3396 41.493 39.1105 37.9214 25.9077C34.3498 12.7049 22.1163 4.52814 22.1163 4.52814C22.1163 4.52814 15.6735 17.7572 19.2451 30.96Z" fill="#9B2990"/>
<path d="M24.4932 28.1227C34.2937 37.6631 35.4908 52.3289 35.4908 52.3289C35.4908 52.3289 20.7981 51.5267 10.9976 41.9862C1.19706 32.4458 0 17.78 0 17.78C0 17.78 14.6927 18.5823 24.4932 28.1227Z" fill="#3F3D56"/>
<path d="M46.4883 28.1227C36.6878 37.6631 35.4907 52.3289 35.4907 52.3289C35.4907 52.3289 50.1834 51.5267 59.9839 41.9862C69.7845 32.4458 70.9815 17.78 70.9815 17.78C70.9815 17.78 56.2888 18.5823 46.4883 28.1227Z" fill="#3F3D56"/>
<path d="M35.4839 9.02828C37.977 9.02828 39.998 7.00723 39.998 4.51414C39.998 2.02105 37.977 0 35.4839 0C32.9908 0 30.9697 2.02105 30.9697 4.51414C30.9697 7.00723 32.9908 9.02828 35.4839 9.02828Z" fill="#9B2990"/>
<path d="M8.45222 36.4824C8.7723 37.6439 9.88433 38.3504 9.88433 38.3504C9.88433 38.3504 10.4774 37.174 10.1573 36.0125C9.83727 34.8511 8.72523 34.1445 8.72523 34.1445C8.72523 34.1445 8.13214 35.321 8.45222 36.4824Z" fill="#9B2990"/>
<path d="M14.4434 42.9507C14.0989 44.1051 14.667 45.2938 14.667 45.2938C14.667 45.2938 15.7937 44.6109 16.1383 43.4565C16.4828 42.302 15.9147 41.1133 15.9147 41.1133C15.9147 41.1133 14.788 41.7962 14.4434 42.9507Z" fill="#9B2990"/>
<path d="M57.6566 50.377C56.811 51.2351 56.7554 52.5515 56.7554 52.5515C56.7554 52.5515 58.0708 52.4766 58.9164 51.6184C59.762 50.7603 59.8176 49.444 59.8176 49.444C59.8176 49.444 58.5022 49.5189 57.6566 50.377Z" fill="#9B2990"/>
<path d="M72.0535 69.1526C72.0535 69.1526 72.22 71.5952 72.4976 71.8728C72.7752 72.1504 69.9995 72.3169 69.9995 72.3169L70.3881 69.1526H72.0535Z" fill="#FFB9B9"/>
<path opacity="0.05" d="M72.0535 69.1526C72.0535 69.1526 72.22 71.5952 72.4976 71.8728C72.7752 72.1504 69.9995 72.3169 69.9995 72.3169L70.3881 69.1526H72.0535Z" fill="black"/>
<path d="M72.6638 71.0401C72.6638 71.0401 72.2752 71.0401 70.8874 71.7618C70.8874 71.7618 69.9437 71.5953 69.5551 70.2629C69.5551 70.2629 68.3893 72.2614 67.6121 72.3725C66.8349 72.4835 65.3361 72.5945 66.3353 73.9268C67.3346 75.2592 73.219 74.6485 73.219 74.6485C73.219 74.6485 73.3855 71.4287 72.6638 71.0401Z" fill="#CBCDDA"/>
<path opacity="0.05" d="M72.6638 71.0401C72.6638 71.0401 72.2752 71.0401 70.8874 71.7618C70.8874 71.7618 69.9437 71.5953 69.5551 70.2629C69.5551 70.2629 68.3893 72.2614 67.6121 72.3725C66.8349 72.4835 65.3361 72.5945 66.3353 73.9268C67.3346 75.2592 73.219 74.6485 73.219 74.6485C73.219 74.6485 73.3855 71.4287 72.6638 71.0401Z" fill="black"/>
<path d="M71.8319 72.9275L71.4433 73.9823L68.8896 73.2606L69.0351 72.2136L69.0701 71.9611L69.1672 71.2621C69.1672 71.2621 71.3322 70.707 71.3322 70.9846C71.3614 71.2134 71.409 71.4395 71.4744 71.6607C71.5632 72.0021 71.6748 72.3913 71.7497 72.6472C71.7986 72.8165 71.8319 72.9275 71.8319 72.9275Z" fill="#FFB9B9"/>
<path d="M70.4379 58.4497C70.263 58.7455 70.0649 59.3007 70.4329 59.9946C70.5419 60.1953 70.6761 60.3813 70.8321 60.5481C72.0533 61.8804 72.3864 64.8781 72.3864 64.8781V69.7078L71.5537 69.7716L70.2214 69.8743L68.2229 61.6583C68.2229 61.6583 67.0571 55.6629 67.6123 54.6081C68.1674 53.5534 68.667 46.9473 68.667 46.9473L69.1278 46.4699L70.2214 45.3374H73.3857C73.6388 45.519 73.849 45.754 74.0013 46.0258C74.5326 46.9051 75.0094 48.7337 73.5522 52.11C71.2762 57.3838 70.61 58.2165 70.61 58.2165C70.544 58.2875 70.4863 58.3657 70.4379 58.4497V58.4497Z" fill="#4C4C78"/>
<path opacity="0.05" d="M70.4379 58.4497C70.263 58.7455 70.0649 59.3007 70.4329 59.9946C70.5419 60.1953 70.6761 60.3813 70.8321 60.5481C72.0533 61.8804 72.3864 64.8781 72.3864 64.8781V69.7078L71.5537 69.7716L70.2214 69.8743L68.2229 61.6583C68.2229 61.6583 67.0571 55.6629 67.6123 54.6081C68.1674 53.5534 68.667 46.9473 68.667 46.9473L69.1278 46.4699L70.2214 45.3374H73.3857C73.6388 45.519 73.849 45.754 74.0013 46.0258C74.5326 46.9051 75.0094 48.7337 73.5522 52.11C71.2762 57.3838 70.61 58.2165 70.61 58.2165C70.544 58.2875 70.4863 58.3657 70.4379 58.4497V58.4497Z" fill="black"/>
<path opacity="0.1" d="M71.4741 71.6607L69.0698 71.9611L69.167 71.2621C69.167 71.2621 71.332 70.707 71.332 70.9846C71.3612 71.2134 71.4087 71.4395 71.4741 71.6607Z" fill="black"/>
<path d="M70.2779 51.3327C70.2779 51.3327 70.4161 55.7027 70.4389 58.4495C70.4439 59.0707 70.4433 59.6092 70.4339 59.9945C70.437 60.1984 70.422 60.4022 70.3889 60.6035C70.2224 61.1031 70.5554 62.2133 70.5554 62.2133C71.9433 65.8772 71.5547 69.097 71.5547 69.097V71.5396L68.89 71.8727C68.89 71.8727 69.3341 71.5396 68.1128 68.3198C67.4112 66.4701 67.259 64.6576 67.2568 63.4496C67.2503 62.7884 67.1181 62.1345 66.8671 61.5228C66.7903 61.3165 66.7424 61.1005 66.725 60.881C66.614 59.7708 66.1144 58.3829 66.1144 58.3829C66.1144 58.3829 64.782 54.4415 64.449 51.5548C64.295 50.1807 64.321 48.7925 64.5261 47.4251C64.5753 47.0776 64.6422 46.7328 64.7265 46.392C64.7265 46.392 70.1535 42.9769 72.2025 45.3373C72.3997 45.5682 72.5561 45.831 72.6649 46.1145C72.7776 46.3945 72.8652 46.6839 72.927 46.9794C73.5648 50.112 70.2779 51.3327 70.2779 51.3327Z" fill="#4C4C78"/>
<path d="M70.1105 27.018C71.6741 27.018 72.9417 25.7504 72.9417 24.1868C72.9417 22.6232 71.6741 21.3556 70.1105 21.3556C68.5469 21.3556 67.2793 22.6232 67.2793 24.1868C67.2793 25.7504 68.5469 27.018 70.1105 27.018Z" fill="#FFB9B9"/>
<path d="M68.5562 25.9632C68.5562 25.9632 69.722 29.2385 68.5562 30.9594C67.3905 32.6803 72.2756 32.1252 72.2756 32.1252L74.1631 29.8491C74.1631 29.8491 71.9426 29.8491 71.8315 25.9632C71.7205 22.0772 68.5562 25.9632 68.5562 25.9632Z" fill="#FFB9B9"/>
<path opacity="0.1" d="M74.1636 46.6696C73.7611 46.8088 73.3473 46.9125 72.9267 46.9794C72.2356 47.086 71.4201 47.0898 70.9438 46.6696C70.6612 46.4204 69.9651 46.3898 69.1285 46.4698C67.3665 46.6385 64.9816 47.2958 64.5259 47.4251C64.575 47.0776 64.6419 46.7328 64.7263 46.392C64.7263 46.392 70.1533 42.9768 72.2023 45.3373H73.3864C73.6395 45.5189 73.8497 45.7539 74.002 46.0256C74.1042 46.4675 74.1636 46.6696 74.1636 46.6696Z" fill="black"/>
<path d="M58.8281 24.729C58.8281 24.729 58.9365 22.5669 61.2088 22.7785C61.2724 22.7845 61.3335 22.8061 61.3868 22.8415C61.44 22.8768 61.4837 22.9247 61.5141 22.9809C61.5444 23.0372 61.5603 23.1 61.5606 23.1639C61.5608 23.2278 61.5452 23.2908 61.5153 23.3472L61.0494 24.2242L58.8281 24.729Z" fill="#FFB9B9"/>
<path d="M71.943 30.5153C71.943 30.5153 69.2228 30.0712 68.5011 29.5161C68.5011 29.5161 67.946 30.5708 66.9468 30.0157C65.9475 29.4605 63.616 29.5161 63.616 29.5161C63.616 29.5161 61.673 28.4613 61.2844 26.0742C61.2844 26.0742 60.8958 24.6309 61.0068 24.2423C61.0068 24.2423 59.5635 22.7434 58.8418 24.7419C59.1194 26.1297 59.3414 26.0187 59.2859 27.129L60.1741 29.5716C60.1741 29.5716 60.2296 30.4043 61.8395 31.5145C63.4494 32.6248 65.2814 34.3457 65.2814 34.3457C65.2814 34.3457 64.3099 34.8731 64.6707 37.2879C65.1117 40.2395 64.4487 44.4492 64.4487 44.4492V47.1693C64.4487 47.1693 70 45.5594 70.9437 46.3921C71.8874 47.2248 74.1635 46.3921 74.1635 46.3921C74.1635 46.3921 73.8859 45.4484 73.4973 43.1723C73.1087 40.8963 73.5528 38.6758 73.5528 38.6758C73.5528 38.6758 74.9962 34.8453 75.6624 33.291C76.3285 31.7366 75.1627 29.6271 73.997 28.8499C72.8312 28.0727 72.397 28.5393 72.397 28.5393C72.397 28.5393 74.4411 30.0157 71.943 30.5153Z" fill="#CBCDDA"/>
<path opacity="0.1" d="M67.0495 23.4944C67.0485 23.6099 67.068 23.7248 67.107 23.8335C67.1718 23.9573 67.2603 24.0672 67.3673 24.157C67.7831 24.5633 68.1478 25.0461 68.2941 25.6086C68.3931 25.9895 68.3878 26.3886 68.3818 26.7821C68.3576 28.3761 68.2909 30.0965 67.3064 31.3503C66.9445 31.8111 66.4794 32.1775 66.0422 32.5675C65.9813 32.6123 65.935 32.6742 65.9094 32.7454C65.8974 32.8212 65.9119 32.8988 65.9506 32.9651C66.1534 33.387 66.5813 33.6458 66.9863 33.8806C67.1715 33.988 67.3665 34.0983 67.5804 34.1052C68.0851 34.1216 68.4187 33.5884 68.8781 33.3786C69.5468 33.0733 70.2973 33.4983 70.9611 33.8143C71.4418 34.0431 71.9461 34.2189 72.4649 34.3387C73.1754 34.5026 73.9788 34.5429 74.5769 34.1259C74.9228 33.8823 75.159 33.5126 75.2348 33.0964C75.2829 32.8251 75.2754 32.5102 75.4808 32.3266C75.5865 32.2319 75.7309 32.1927 75.8454 32.1088C76.0229 31.9787 76.1074 31.7598 76.183 31.5531L76.8668 29.6834C76.9551 29.4858 77.0006 29.2718 77.0005 29.0554C76.9677 28.6052 76.5524 28.2784 76.1356 28.1053C75.7187 27.9322 75.2576 27.8469 74.891 27.5835C74.2711 27.1381 74.0798 26.3063 74.0241 25.5451C73.9859 25.0222 73.9896 24.4972 74.0353 23.9749C74.103 23.2005 74.2544 22.3758 73.9099 21.6789C73.5419 20.9346 72.7165 20.5546 71.9521 20.2303C71.6586 20.1058 71.3572 19.9794 71.0387 19.9653C70.7016 19.9504 70.3733 20.0625 70.0546 20.173C69.548 20.3486 69.0341 20.5761 68.5112 20.6952C68.2174 20.7621 67.8955 20.712 67.6122 20.8183C66.5713 21.2087 67.0495 22.6563 67.0495 23.4944Z" fill="black"/>
<path d="M67.0495 23.3834C67.0485 23.4989 67.068 23.6137 67.107 23.7225C67.1718 23.8463 67.2603 23.9562 67.3673 24.046C67.7831 24.4523 68.1478 24.935 68.2941 25.4976C68.3931 25.8785 68.3878 26.2776 68.3818 26.6711C68.3576 28.2651 68.2909 29.9855 67.3064 31.2393C66.9445 31.7001 66.4794 32.0665 66.0422 32.4565C65.9813 32.5013 65.935 32.5632 65.9094 32.6343C65.8974 32.7101 65.9119 32.7877 65.9506 32.854C66.1534 33.276 66.5813 33.5348 66.9863 33.7696C67.1715 33.877 67.3665 33.9873 67.5804 33.9942C68.0851 34.0105 68.4187 33.4773 68.8781 33.2676C69.5468 32.9623 70.2973 33.3872 70.9611 33.7033C71.4418 33.9321 71.9461 34.1079 72.4649 34.2277C73.1754 34.3916 73.9788 34.4318 74.5769 34.0149C74.9228 33.7713 75.159 33.4015 75.2348 32.9854C75.2829 32.7141 75.2754 32.3992 75.4808 32.2155C75.5865 32.1209 75.7309 32.0816 75.8454 31.9978C76.0229 31.8677 76.1074 31.6488 76.183 31.4421L76.8668 29.5724C76.9551 29.3748 77.0006 29.1608 77.0005 28.9444C76.9677 28.4942 76.5524 28.1674 76.1356 27.9943C75.7187 27.8212 75.2576 27.7359 74.891 27.4725C74.2711 27.0271 74.0798 26.1953 74.0241 25.434C73.9859 24.9112 73.9896 24.3862 74.0353 23.8639C74.103 23.0895 74.2544 22.2648 73.9099 21.5679C73.5419 20.8236 72.7165 20.4435 71.9521 20.1193C71.6586 19.9947 71.3572 19.8684 71.0387 19.8543C70.7016 19.8394 70.3733 19.9514 70.0546 20.062C69.548 20.2376 69.0341 20.465 68.5112 20.5842C68.2174 20.6511 67.8955 20.601 67.6122 20.7073C66.5713 21.0977 67.0495 22.5453 67.0495 23.3834Z" fill="#B96B6B"/>
<path opacity="0.05" d="M64.8105 38.5333C64.8105 38.5333 65.2534 38.426 67.474 38.0929C69.6945 37.7599 73.5804 38.537 73.5804 38.537" fill="black"/>
<path d="M3.79402 47.6615C4.11409 48.8229 5.22613 49.5295 5.22613 49.5295C5.22613 49.5295 5.81922 48.353 5.49914 47.1916C5.17906 46.0301 4.06703 45.3235 4.06703 45.3235C4.06703 45.3235 3.47394 46.5 3.79402 47.6615Z" fill="#9B2990"/>
<rect x="4.49658" y="57.6821" width="28.462" height="28.462" rx="2.5" fill="white" stroke="#39374D" stroke-width="3"/>
<path d="M23.7077 74.8954H21.3833C21.2229 74.8954 21.0928 75.0255 21.0928 75.1859V77.5103C21.0928 77.6707 21.2229 77.8008 21.3833 77.8008H23.7077C23.8681 77.8008 23.9982 77.6707 23.9982 77.5103V75.1859C23.9982 75.0255 23.8681 74.8954 23.7077 74.8954Z" fill="#33323D"/>
<path d="M20.8019 72.571H19.0586C18.8981 72.571 18.7681 72.7011 18.7681 72.8615V74.6048C18.7681 74.7652 18.8981 74.8953 19.0586 74.8953H20.8019C20.9623 74.8953 21.0924 74.7652 21.0924 74.6048V72.8615C21.0924 72.7011 20.9623 72.571 20.8019 72.571Z" fill="#33323D"/>
<path d="M26.0314 77.8006H24.2881C24.1276 77.8006 23.9976 77.9307 23.9976 78.0911V79.8344C23.9976 79.9949 24.1276 80.1249 24.2881 80.1249H26.0314C26.1918 80.1249 26.3219 79.9949 26.3219 79.8344V78.0911C26.3219 77.9307 26.1918 77.8006 26.0314 77.8006Z" fill="#33323D"/>
<path d="M26.0318 72.571H24.8696C24.7092 72.571 24.5791 72.7011 24.5791 72.8615V74.0237C24.5791 74.1842 24.7092 74.3142 24.8696 74.3142H26.0318C26.1923 74.3142 26.3224 74.1842 26.3224 74.0237V72.8615C26.3224 72.7011 26.1923 72.571 26.0318 72.571Z" fill="#33323D"/>
<path d="M20.2208 78.3818H19.0586C18.8981 78.3818 18.7681 78.5119 18.7681 78.6723V79.8345C18.7681 79.995 18.8981 80.125 19.0586 80.125H20.2208C20.3812 80.125 20.5113 79.995 20.5113 79.8345V78.6723C20.5113 78.5119 20.3812 78.3818 20.2208 78.3818Z" fill="#33323D"/>
<path d="M25.16 63.8546H19.9302C19.622 63.8546 19.3264 63.9771 19.1085 64.195C18.8905 64.413 18.7681 64.7086 18.7681 65.0168V70.2466C18.7681 70.5548 18.8905 70.8504 19.1085 71.0683C19.3264 71.2863 19.622 71.4087 19.9302 71.4087H25.16C25.4682 71.4087 25.7638 71.2863 25.9818 71.0683C26.1997 70.8504 26.3222 70.5548 26.3222 70.2466V65.0168C26.3222 64.7086 26.1997 64.413 25.9818 64.195C25.7638 63.9771 25.4682 63.8546 25.16 63.8546ZM23.9978 68.7938C23.9978 68.8709 23.9672 68.9448 23.9127 68.9993C23.8583 69.0538 23.7844 69.0844 23.7073 69.0844H21.383C21.3059 69.0844 21.232 69.0538 21.1775 68.9993C21.123 68.9448 21.0924 68.8709 21.0924 68.7938V66.4695C21.0924 66.3924 21.123 66.3185 21.1775 66.2641C21.232 66.2096 21.3059 66.179 21.383 66.179H23.7073C23.7844 66.179 23.8583 66.2096 23.9127 66.2641C23.9672 66.3185 23.9978 66.3924 23.9978 66.4695V68.7938Z" fill="#33323D"/>
<path d="M16.4437 63.8546H11.2139C10.9057 63.8546 10.6101 63.9771 10.3921 64.195C10.1742 64.413 10.0518 64.7086 10.0518 65.0168V70.2466C10.0518 70.5548 10.1742 70.8504 10.3921 71.0683C10.6101 71.2863 10.9057 71.4087 11.2139 71.4087H16.4437C16.7519 71.4087 17.0475 71.2863 17.2655 71.0683C17.4834 70.8504 17.6059 70.5548 17.6059 70.2466V65.0168C17.6059 64.7086 17.4834 64.413 17.2655 64.195C17.0475 63.9771 16.7519 63.8546 16.4437 63.8546ZM15.2815 68.7938C15.2815 68.8709 15.2509 68.9448 15.1964 68.9993C15.1419 69.0538 15.068 69.0844 14.991 69.0844H12.6666C12.5896 69.0844 12.5157 69.0538 12.4612 68.9993C12.4067 68.9448 12.3761 68.8709 12.3761 68.7938V66.4695C12.3761 66.3924 12.4067 66.3185 12.4612 66.2641C12.5157 66.2096 12.5896 66.179 12.6666 66.179H14.991C15.068 66.179 15.1419 66.2096 15.1964 66.2641C15.2509 66.3185 15.2815 66.3924 15.2815 66.4695V68.7938Z" fill="#33323D"/>
<path d="M16.4437 72.571H11.2139C10.9057 72.571 10.6101 72.6934 10.3921 72.9114C10.1742 73.1293 10.0518 73.4249 10.0518 73.7332V78.9629C10.0518 79.2712 10.1742 79.5668 10.3921 79.7847C10.6101 80.0027 10.9057 80.1251 11.2139 80.1251H16.4437C16.7519 80.1251 17.0475 80.0027 17.2655 79.7847C17.4834 79.5668 17.6059 79.2712 17.6059 78.9629V73.7332C17.6059 73.4249 17.4834 73.1293 17.2655 72.9114C17.0475 72.6934 16.7519 72.571 16.4437 72.571ZM15.2815 77.5102C15.2815 77.5873 15.2509 77.6612 15.1964 77.7157C15.1419 77.7701 15.068 77.8008 14.991 77.8008H12.6666C12.5896 77.8008 12.5157 77.7701 12.4612 77.7157C12.4067 77.6612 12.3761 77.5873 12.3761 77.5102V75.1859C12.3761 75.1088 12.4067 75.0349 12.4612 74.9804C12.5157 74.9259 12.5896 74.8953 12.6666 74.8953H14.991C15.068 74.8953 15.1419 74.9259 15.1964 74.9804C15.2509 75.0349 15.2815 75.1088 15.2815 75.1859V77.5102Z" fill="#33323D"/>
</svg>
