<svg width="489" height="369" viewBox="0 0 489 369" fill="none" xmlns="http://www.w3.org/2000/svg">
<path d="M-5.97212e-06 294.377L155.08 355.605L189.011 369L262.403 343.415L325.038 321.58L330.241 319.768L337.865 300.454L368.179 223.671L383.395 185.124L387.971 173.538L391.281 165.152L398.656 146.469L410.599 116.222L384.513 105.925L359.6 96.0878L341.693 89.0186L116.222 0L-5.97212e-06 294.377Z" fill="#F2F2F2"/>
<path d="M477.207 196.682C475.323 196.275 473.355 196.632 471.735 197.675C470.116 198.719 468.976 200.363 468.569 202.246C468.161 204.129 468.518 206.097 469.561 207.717C470.605 209.337 472.249 210.476 474.132 210.884C478.054 211.733 488.45 206.55 488.45 206.55C488.45 206.55 481.128 197.531 477.207 196.682Z" fill="#813E7A"/>
<path d="M475.471 345.843C474.238 344.362 472.467 343.432 470.548 343.256C468.629 343.081 466.719 343.675 465.239 344.908C463.758 346.141 462.828 347.912 462.652 349.83C462.477 351.749 463.071 353.659 464.304 355.14C466.872 358.223 478.255 360.541 478.255 360.541C478.255 360.541 478.038 348.926 475.471 345.843Z" fill="#813E7A"/>
<path d="M160.389 109.304C172.093 89.5279 195.248 88.6062 195.248 88.6062C195.248 88.6062 217.811 85.7209 232.285 115.839C245.776 143.913 264.396 171.018 235.283 177.589L230.024 161.222L226.768 178.808C222.622 179.106 218.464 179.177 214.311 179.021C183.134 178.014 153.442 179.315 154.398 168.127C155.669 153.255 149.128 128.332 160.389 109.304Z" fill="#2F2E41"/>
<path d="M208.428 150.693C204.395 159.613 201.852 170.247 200.333 182.058L167.956 180.035C175.4 169.487 177.871 157.38 175.039 143.61L208.428 150.693Z" fill="#FFB8B8"/>
<path opacity="0.2" d="M208.428 150.693C204.395 159.613 201.852 170.247 200.333 182.058L167.956 180.035C175.4 169.487 177.871 157.38 175.039 143.61L208.428 150.693Z" fill="black"/>
<path d="M358.65 320.541C358.65 320.541 375.407 329.516 366.904 337.18C358.4 344.843 347.168 327.036 347.168 327.036L358.65 320.541Z" fill="#FFB8B8"/>
<path d="M153.791 294.368L154.052 306.631L154.611 333.127L155.08 355.606L189.01 369L262.403 343.415L257.574 316.603L253.675 294.954L251.934 285.261L163.908 273.12L153.791 294.368Z" fill="#2F2E41"/>
<path d="M153.791 294.367L154.054 306.63C185.197 305.831 233.47 298.313 253.675 294.954L251.935 285.261L163.909 273.12L153.791 294.367Z" fill="#3F3D56"/>
<path d="M192.745 159.293C178.775 159.293 167.45 147.968 167.45 133.998C167.45 120.028 178.775 108.703 192.745 108.703C206.715 108.703 218.04 120.028 218.04 133.998C218.04 147.968 206.715 159.293 192.745 159.293Z" fill="#FFB8B8"/>
<path d="M144.179 308.027C144.179 308.027 141.144 335.345 159.356 333.321L162.391 306.003L178.58 289.814L224.111 288.802L257.5 320.168C257.5 320.168 258.512 287.791 254.465 284.755C250.417 281.72 241.311 274.637 241.311 274.637V269.578L268.63 213.93C268.63 213.93 252.441 180.54 239.288 179.529L222.087 178.517C222.087 178.517 216.016 175.481 216.016 174.47C216.016 173.458 217.028 165.363 211.969 167.387C211.969 167.387 211.514 157.006 206.182 160.173C206.182 160.173 189.396 173.326 172.357 160.75C172.357 160.75 164.415 159.293 165.427 163.34C166.438 167.387 165.427 170.422 163.403 170.422C161.379 170.422 152.273 173.458 152.273 175.481C152.273 175.917 151.616 180.105 150.584 186.409V186.419C146.83 209.397 138.108 260.472 138.108 260.472C138.108 260.472 129.002 273.626 144.179 308.027Z" fill="#813E7A"/>
<path d="M261.547 208.871L268.629 213.93L333.384 296.897L367.785 324.215C367.785 324.215 348.561 321.18 352.608 337.369L234.228 269.578L261.547 208.871Z" fill="#813E7A"/>
<path d="M150.584 186.409V186.419C151.929 194.331 195.781 192.682 201.851 192.682C207.922 192.682 212.981 191.67 219.052 187.623C225.123 183.576 222.087 178.517 222.087 178.517C222.087 178.517 216.918 174.58 216.918 173.568C216.918 172.556 217.93 164.462 212.871 166.485C212.871 166.485 212.416 156.104 207.084 159.271C207.084 159.271 189.396 173.326 172.358 160.75C172.358 160.75 164.415 159.293 165.427 163.34C166.439 167.387 165.427 170.423 163.403 170.423C161.38 170.423 152.274 173.458 152.274 175.482C152.274 175.917 151.616 180.105 150.584 186.409Z" fill="#3F3D56"/>
<path d="M155.814 148.669C155.814 148.669 163.909 131.468 172.003 139.563C180.097 147.657 162.897 159.799 162.897 159.799L155.814 148.669Z" fill="#FFB8B8"/>
<path d="M155.814 144.622C155.814 144.622 168.313 160.418 172.182 161.626C172.182 161.626 160.873 206.341 146.708 218.483L138.614 259.966C138.614 259.966 104.213 245.801 112.307 222.53C112.388 222.297 112.468 222.066 112.549 221.836C119.307 202.456 128.635 184.07 140.281 167.17L155.814 144.622Z" fill="#813E7A"/>
<path opacity="0.2" d="M162.493 191.471L137.602 259.966L146.708 218.483L162.493 191.471Z" fill="black"/>
<path d="M165.564 107.397L188.44 95.4147L220.03 100.317L226.566 129.184L210.296 128.558L205.751 117.953V128.383L198.244 128.094L193.886 111.21L191.163 129.184L164.475 128.639L165.564 107.397Z" fill="#2F2E41"/>
<path d="M361.812 332.926C377.537 324.16 387.326 312.192 390.908 297.354C393.568 286.337 392.804 273.941 388.637 260.508C385.548 250.604 380.917 241.249 374.914 232.788C343.067 187.71 340.193 158.337 343.39 141.634C346.894 123.32 358.281 115.713 358.396 115.639L357.905 114.883C357.787 114.959 346.1 122.742 342.511 141.428C340.442 152.201 341.415 164.485 345.404 177.938C350.369 194.681 360.049 213.31 374.177 233.309C380.126 241.692 384.715 250.961 387.776 260.775C394.61 282.806 395.577 313.071 361.373 332.139L361.812 332.926Z" fill="#2F2E41"/>
<path d="M390.532 249.457C402.929 242.546 402.584 231.594 400.111 223.623C399.015 220.108 397.371 216.787 395.241 213.784C384.084 197.991 383.076 187.733 384.194 181.907C385.409 175.582 389.307 172.985 389.347 172.959L388.855 172.203C388.682 172.316 384.596 175.038 383.309 181.737C381.633 190.46 385.4 201.417 394.504 214.304C396.58 217.23 398.182 220.465 399.25 223.89C401.624 231.543 401.962 242.053 390.093 248.67L390.532 249.457Z" fill="#2F2E41"/>
<path d="M334.755 149.371L335.194 148.583C323.325 141.966 323.663 131.456 326.037 123.804C327.105 120.378 328.707 117.143 330.783 114.217C339.887 101.331 343.654 90.3735 341.978 81.6506C340.692 74.9516 336.605 72.2289 336.432 72.1165L335.94 72.872C335.979 72.8979 339.897 75.529 341.1 81.8562C342.206 87.6782 341.187 97.9282 330.047 113.697C327.916 116.7 326.272 120.021 325.176 123.536C322.703 131.507 322.358 142.459 334.755 149.371Z" fill="#2F2E41"/>
<path d="M308.286 104.511C309.256 105.999 310.51 107.281 311.976 108.285C313.442 109.289 315.091 109.994 316.83 110.36C318.568 110.726 320.362 110.746 322.108 110.418C323.854 110.091 325.519 109.423 327.007 108.452C328.495 107.481 329.777 106.227 330.78 104.761C331.783 103.294 332.487 101.645 332.853 99.9062C333.218 98.1676 333.237 96.374 332.909 94.628C332.582 92.8819 331.913 91.2176 330.942 89.73C326.86 83.4739 306.311 76.7305 306.311 76.7305C306.311 76.7305 304.205 98.2544 308.286 104.511Z" fill="#813E7A"/>
<path d="M313.246 62.5824C314.216 64.0707 315.47 65.3533 316.936 66.3569C318.402 67.3605 320.051 68.0654 321.789 68.4314C323.528 68.7975 325.321 68.8174 327.068 68.4902C328.814 68.1629 330.478 67.4948 331.966 66.5241C333.454 65.5533 334.736 64.299 335.739 62.8326C336.742 61.3663 337.447 59.7167 337.812 57.9781C338.178 56.2395 338.197 54.4459 337.869 52.6999C337.541 50.9538 336.872 49.2895 335.901 47.8019C331.819 41.5458 311.271 34.8024 311.271 34.8024C311.271 34.8024 309.164 56.3263 313.246 62.5824Z" fill="#813E7A"/>
<path d="M335.045 216.192C338.218 216.197 341.299 215.122 343.78 213.144C346.261 211.166 347.995 208.402 348.697 205.308C349.399 202.213 349.027 198.972 347.642 196.117C346.258 193.262 343.943 190.963 341.078 189.599C334.27 186.355 313.851 191.103 312.985 191.307L312.438 191.436L312.682 191.942C313.07 192.743 322.248 211.59 329.057 214.834C330.927 215.727 332.973 216.191 335.045 216.192V216.192ZM333.908 189.371C336.677 189.371 339.104 189.657 340.69 190.413C343.821 191.904 346.231 194.578 347.39 197.846C348.549 201.114 348.362 204.709 346.871 207.839C345.38 210.97 342.706 213.38 339.438 214.539C336.17 215.698 332.575 215.511 329.445 214.02C323.522 211.198 315.284 195.14 313.746 192.059C316.207 191.513 326.336 189.371 333.908 189.371V189.371Z" fill="#2F2E41"/>
<path d="M362.608 92.1011C361.295 93.2978 360.231 94.7413 359.477 96.3492C358.722 97.9571 358.292 99.6979 358.21 101.472C358.128 103.246 358.396 105.019 359 106.69C359.603 108.361 360.53 109.896 361.726 111.208C362.923 112.521 364.367 113.585 365.975 114.339C367.582 115.094 369.323 115.524 371.098 115.606C372.872 115.688 374.645 115.42 376.315 114.816C377.986 114.213 379.521 113.286 380.834 112.09C386.353 107.057 389.71 85.692 389.71 85.692C389.71 85.692 368.127 87.0681 362.608 92.1011Z" fill="#813E7A"/>
<path d="M394.166 148.907C391.515 151.324 389.933 154.695 389.768 158.278C389.603 161.862 390.868 165.364 393.285 168.014C395.702 170.665 399.073 172.247 402.656 172.412C406.239 172.578 409.741 171.313 412.392 168.896C417.912 163.863 421.269 142.498 421.269 142.498C421.269 142.498 399.686 143.874 394.166 148.907Z" fill="#813E7A"/>
<path d="M358.792 156.874C363.306 156.874 371.938 152.599 372.334 152.402L372.838 152.151L372.483 151.714C372.18 151.341 365.015 142.562 360.985 141.69C358.985 141.257 356.895 141.636 355.174 142.744C353.454 143.852 352.244 145.598 351.811 147.599C351.378 149.599 351.757 151.689 352.865 153.409C353.973 155.13 355.72 156.339 357.72 156.772C358.073 156.844 358.432 156.878 358.792 156.874V156.874ZM371.418 151.843C369.292 152.858 361.15 156.593 357.91 155.891C356.145 155.508 354.604 154.439 353.627 152.92C352.649 151.401 352.314 149.556 352.697 147.79C353.079 146.025 354.147 144.483 355.665 143.504C357.183 142.526 359.028 142.19 360.794 142.571C364.035 143.273 369.903 150.04 371.418 151.843Z" fill="#2F2E41"/>
<path d="M407.209 340.306C406.259 338.63 404.683 337.4 402.827 336.887C400.971 336.373 398.987 336.617 397.311 337.566C395.635 338.514 394.404 340.089 393.889 341.945C393.373 343.801 393.616 345.785 394.563 347.462C396.539 350.954 407.327 355.265 407.327 355.265C407.327 355.265 409.185 343.798 407.209 340.306Z" fill="#813E7A"/>
<path d="M430.807 262.947C433.919 262.897 437.023 262.63 440.097 262.146L440.653 262.056L440.444 261.534C440.265 261.088 436.029 250.578 432.439 248.549C431.557 248.05 430.585 247.73 429.58 247.607C428.574 247.483 427.554 247.559 426.577 247.831C425.601 248.102 424.688 248.562 423.889 249.186C423.091 249.81 422.424 250.586 421.925 251.468C421.426 252.35 421.106 253.321 420.983 254.327C420.86 255.333 420.936 256.353 421.207 257.329C421.478 258.306 421.939 259.219 422.563 260.017C423.187 260.816 423.962 261.483 424.844 261.982C426.134 262.711 428.405 262.947 430.807 262.947ZM439.389 261.341C437.057 261.679 428.174 262.828 425.288 261.197C423.715 260.308 422.559 258.83 422.076 257.088C421.592 255.347 421.82 253.485 422.71 251.911C423.599 250.338 425.077 249.183 426.818 248.699C428.56 248.216 430.422 248.444 431.995 249.333V249.333C434.881 250.964 438.476 259.169 439.389 261.341Z" fill="#2F2E41"/>
</svg>
