<svg width="302" height="191" viewBox="0 0 302 191" fill="none" xmlns="http://www.w3.org/2000/svg">
<path opacity="0.1" d="M302 123.466C302.005 128.506 301.396 133.528 300.187 138.42C299.78 140.067 299.308 141.681 298.769 143.262C298.11 145.212 297.346 147.125 296.482 148.993C296.046 149.936 295.586 150.862 295.1 151.771C295.108 156.939 294.045 162.053 291.98 166.789C288.244 175.285 281.585 182.155 273.216 186.149C267.977 188.651 262.25 189.966 256.445 190H57.3339C48.4744 190.02 39.7676 187.69 32.0989 183.247C30.9656 182.59 29.8614 181.89 28.7862 181.147C26.4517 179.532 24.2584 177.721 22.23 175.734C19.4839 173.045 17.0647 170.039 15.0226 166.781C10.2248 159.153 7.68313 150.319 7.69204 141.303C2.83324 132.766 0 122.54 0 111.55C0 97.6855 4.50241 85.0377 11.8996 75.4632C13.4418 73.4629 15.131 71.5808 16.9533 69.8325C18.7512 68.1026 20.6838 66.5185 22.7326 65.0954C24.3711 63.9546 26.0843 62.9253 27.8606 62.0143C28.6016 61.6343 29.3452 61.28 30.1015 60.9488C30.7656 60.6535 31.4374 60.3788 32.1169 60.1194C32.9322 59.8079 33.7578 59.5229 34.5937 59.2644C35.4296 59.006 36.2543 58.7783 37.068 58.5815C38.2645 58.2888 39.4816 58.0508 40.7191 57.8677C41.7447 57.7162 42.7703 57.6109 43.7959 57.5288C44.6113 57.4706 45.4335 57.4363 46.2625 57.4261H46.7112C47.624 57.4261 48.5317 57.462 49.4316 57.5236C49.5265 57.3336 49.6291 57.1411 49.7239 56.9511C50.0829 56.2681 50.4547 55.5851 50.829 54.915V54.897C50.8931 54.7815 50.9572 54.6659 51.0239 54.5529C51.3265 54.0061 51.6418 53.4643 51.9649 52.9277C52.1136 52.6709 52.2598 52.4296 52.411 52.1857C52.4444 52.1266 52.4777 52.0701 52.5162 52.0111C52.67 51.7543 52.8264 51.4975 52.9854 51.2408C53.7768 49.9758 54.5998 48.7306 55.4545 47.505C55.5289 47.3997 55.5981 47.297 55.6725 47.1943C55.8058 47.0043 55.9289 46.8169 56.0776 46.6294C56.4314 46.1339 56.7955 45.6358 57.1622 45.1454C57.4186 44.7988 57.675 44.4521 57.9519 44.1184C58.6185 43.2557 59.3031 42.3981 60.0031 41.5508C60.7031 40.7035 61.4415 39.8511 62.1876 39.0166C62.2902 38.9011 62.3927 38.7881 62.5004 38.6725L63.5953 37.4786C63.6491 37.4221 63.6953 37.3708 63.7465 37.3194C63.8773 37.1782 64.0029 37.037 64.144 36.8984C64.7311 36.277 65.3337 35.6634 65.9388 35.0574C69.0296 31.9821 72.3223 29.1171 75.7948 26.4817C75.9307 26.3739 76.0692 26.2712 76.2051 26.1685C76.8563 25.6755 77.5179 25.1902 78.1794 24.7127C81.8186 22.0997 85.6221 19.724 89.5662 17.6005C89.838 17.4465 90.1149 17.3001 90.3943 17.1538C93.9313 15.2813 97.5683 13.6047 101.289 12.1316C103.316 11.3288 105.379 10.5791 107.478 9.8824C108.868 9.42794 110.263 8.99402 111.676 8.59862C113.86 7.97042 116.072 7.40384 118.311 6.89889C124.908 5.41659 131.62 4.50093 138.372 4.16186C140.423 4.05402 142.498 4.0001 144.595 4.0001C154.715 3.98669 164.796 5.26362 174.594 7.8001C174.695 7.95341 174.834 8.07839 174.997 8.16328C175.16 8.24818 175.341 8.29019 175.525 8.28537H176.386C176.761 8.38551 177.132 8.49078 177.507 8.59862C179.597 9.20285 181.658 9.86101 183.689 10.5731L184.201 10.7579C189.213 12.5426 194.09 14.6878 198.793 17.1769C203.032 19.4161 207.114 21.9416 211.011 24.7358C211.611 25.1671 212.202 25.6028 212.785 26.0427C213.493 25.5856 214.212 25.15 214.944 24.7358C217.769 23.1253 220.77 21.8451 223.887 20.9204C230.404 18.9891 237.3 18.719 243.948 20.1347C252.473 21.9448 260.191 26.4381 266.424 32.8288C268.963 35.4351 271.225 38.2988 273.173 41.3736C273.314 41.5944 273.455 41.8178 273.591 42.0438C275.262 44.7745 276.697 47.6425 277.883 50.6169C277.926 50.7247 277.97 50.83 278.008 50.9378C279.103 53.7213 279.986 56.5838 280.649 59.5007C280.68 59.647 280.716 59.7959 280.747 59.9448C281.367 62.7677 281.789 65.6307 282.008 68.5128C282.008 68.6155 282.008 68.7208 282.029 68.8261C282.137 70.317 282.191 71.8241 282.193 73.3475C282.193 74.7084 282.147 76.0589 282.062 77.3966C282.062 77.543 282.042 77.697 282.029 77.8459C282.006 78.2362 281.972 78.6162 281.939 79.009C283.897 80.5899 285.73 82.3205 287.421 84.1852C288.168 85.0017 288.891 85.8499 289.59 86.7297C291.72 89.4019 293.592 92.2708 295.18 95.2977C299.508 103.509 302 113.147 302 123.466Z" fill="#9B2990"/>
<path opacity="0.1" d="M273 173.917C273 179.783 266.978 185.272 256.471 190H57.9852C48.8016 190 40.2008 186.645 32.8294 180.794C30.9764 178.575 30 176.275 30 173.914C30 167.679 36.8091 161.859 48.5818 156.94L48.9141 156.806C52.2368 155.43 55.9506 154.132 60.0095 152.912C60.1117 152.881 60.2165 152.852 60.3188 152.816C63.5393 151.861 66.9651 150.956 70.5963 150.101C70.7113 150.075 70.8237 150.047 70.9388 150.026C72.3394 149.691 73.7682 149.378 75.2277 149.066L75.79 148.947C86.41 146.723 98.4818 144.958 111.573 143.76H111.589C113.422 143.588 115.275 143.434 117.148 143.298C119.231 143.13 121.34 142.988 123.471 142.857C125.1 142.751 126.748 142.661 128.402 142.578C128.408 142.575 128.414 142.574 128.421 142.574C128.428 142.574 128.434 142.575 128.44 142.578C135.901 142.199 143.61 142 151.492 142C170.984 142 189.407 143.208 205.732 145.355C205.748 145.352 205.763 145.352 205.778 145.355C208.288 145.685 210.752 146.034 213.155 146.405C213.842 146.514 214.527 146.622 215.2 146.733C217.911 147.175 220.552 147.642 223.123 148.135C253.36 153.939 273 163.33 273 173.917Z" fill="#9B2990"/>
<path d="M229.939 49.3319C229.939 49.3319 226.837 48.0739 216.967 52.5985C207.097 57.1231 205.865 56.5513 203.311 55.871C200.757 55.1907 199.332 55.0147 196.593 51.235C196.593 51.235 194.661 40.7636 192.781 39.1391C190.901 37.5146 182.966 40.0657 182.966 40.0657C182.966 40.0657 173.439 42.2503 171.624 29.5093C171.624 29.5093 172.911 19.9148 171.158 16.9707C171.158 16.9707 174.7 18.4955 180.541 16.0324C186.383 13.5692 191.06 18.6861 191.06 18.6861C191.06 18.6861 192.526 22.4981 192.379 24.7736C192.233 27.0491 193.159 27.9024 195.945 26.8028C195.945 26.8028 197.314 24.8557 195.376 21.636C193.438 18.4163 192.054 16.0206 192.593 13.5223C193.133 11.0239 194.69 7.555 199.69 5.822C204.689 4.08899 211.477 3.76936 214.735 2.39997C217.993 1.03057 218.797 0.156738 218.797 0.156738C218.797 0.156738 216.791 2.16538 221.515 10.6838C226.239 19.2022 223.227 22.8969 223.227 22.8969C223.227 22.8969 220.714 28.8877 209.618 28.4009C209.618 28.4009 198.927 28.7909 204.757 33.3243C204.757 33.3243 208.489 32.5648 214.07 30.7908C219.65 29.0167 223.679 36.3387 224.679 41.4322C225.679 46.5256 229.939 49.3319 229.939 49.3319Z" fill="#9B2990"/>
<path d="M215.568 6.60786L215.627 6.59027C216.055 8.21478 211.278 14.748 207.194 19.9412L207.147 19.903C212.906 12.5898 215.9 7.86583 215.568 6.60786Z" fill="#444053"/>
<path d="M207.229 19.8034L207.255 19.8679C203.991 24.0142 199.889 28.9581 196.605 32.6323C196.291 32.9813 195.98 33.3478 195.681 33.7232L195.587 33.6469C195.881 33.2716 196.2 32.9021 196.514 32.5532C199.795 28.8936 203.962 23.9526 207.229 19.8034Z" fill="#444053"/>
<path d="M195.667 33.553L195.731 33.6645C189.755 41.1272 189.359 52.7246 189.344 52.8155L188.083 51.3493C188.098 51.2555 189.649 41.0686 195.667 33.553Z" fill="#444053"/>
<path d="M223.022 45.2853C223.022 45.2853 215.985 41.6199 210.483 42.9395C204.982 44.259 192.611 38.2771 192.611 38.2771C192.611 38.2771 187.362 36.1453 186.306 33.7144C186.306 33.7144 182.703 29.9023 182.494 27.9348C182.286 25.9672 178.782 21.0086 176.495 20.818" stroke="#444053" stroke-miterlimit="10"/>
<path d="M221.987 48.813C221.987 48.813 218.439 46.4202 218.852 43.6345" stroke="#444053" stroke-miterlimit="10"/>
<path d="M216.545 51.9005C216.545 51.9005 211.469 50.059 210.973 42.8337" stroke="#444053" stroke-miterlimit="10"/>
<path d="M208.361 53.7714C208.361 53.7714 203.511 49.7483 205.12 42.7166" stroke="#444053" stroke-miterlimit="10"/>
<path d="M198.511 51.8067C198.511 51.8067 195.285 45.033 198.156 40.6257" stroke="#444053" stroke-miterlimit="10"/>
<path d="M223.09 40.8194C223.09 40.8194 219.421 41.9923 220.207 43.9159" stroke="#444053" stroke-miterlimit="10"/>
<path d="M218.662 34.1717C218.662 34.1717 213.75 35.7288 213.636 42.6754" stroke="#444053" stroke-miterlimit="10"/>
<path d="M211.812 32.5531C211.812 32.5531 207.34 38.0717 207.669 43.086" stroke="#444053" stroke-miterlimit="10"/>
<path d="M203.983 34.7171C203.983 34.7171 199.543 38.9631 200.109 41.3236" stroke="#444053" stroke-miterlimit="10"/>
<path d="M201.305 33.2188C201.305 33.2188 197.141 33.9636 196.558 32.5971" stroke="#444053" stroke-miterlimit="10"/>
<path d="M195.895 28.1927C195.895 28.1927 197.998 30.9785 198.534 30.3539" stroke="#444053" stroke-miterlimit="10"/>
<path d="M216.75 26.4305C216.75 26.4305 206.252 27.1929 203.877 24.0259" stroke="#444053" stroke-miterlimit="10"/>
<path d="M193.699 14.1528C193.699 14.1528 198.622 24.7239 202.203 26.0698" stroke="#444053" stroke-miterlimit="10"/>
<path d="M198.854 9.11798C198.854 9.11798 201.877 18.8416 205.625 21.8765" stroke="#444053" stroke-miterlimit="10"/>
<path d="M221.166 18.4047C221.166 18.4047 213.184 21.8297 208.393 18.3636" stroke="#444053" stroke-width="0.75" stroke-miterlimit="10"/>
<path d="M205.962 7.04474C205.962 7.04474 207.786 14.1908 210.243 15.918" stroke="#444053" stroke-width="0.75" stroke-miterlimit="10"/>
<path d="M219.961 10.3965C219.961 10.3965 215.474 12.0972 213.803 10.7953" stroke="#444053" stroke-width="0.75" stroke-miterlimit="10"/>
<path d="M192.051 30.5269C192.051 30.5269 192.051 36.758 190.356 37.2008" stroke="#444053" stroke-miterlimit="10"/>
<path d="M178.184 38.5997C178.184 38.5997 184.928 39.1861 188.028 35.6996" stroke="#444053" stroke-miterlimit="10"/>
<path d="M190.315 23.1667C190.315 23.1667 188.685 29.4858 184.187 31.1895" stroke="#444053" stroke-miterlimit="10"/>
<path d="M174.143 31.9432C174.143 31.9432 178.911 33.5999 183.013 29.3803" stroke="#444053" stroke-miterlimit="10"/>
<path d="M185.01 17.733C185.01 17.733 184.562 23.0991 181.644 25.6121" stroke="#444053" stroke-miterlimit="10"/>
<path d="M174.325 23.7649C174.325 23.7649 178.281 23.7913 179.208 22.5011" stroke="#444053" stroke-miterlimit="10"/>
<path d="M202.936 44.1416H90.2759V101.011H202.936V44.1416Z" fill="#33323D"/>
<path d="M238.388 118.288H55.1816V155.723H238.388V118.288Z" fill="#33323D"/>
<path d="M98.9143 127.646H192.857L211.574 190.635H79.1182L98.9143 127.646Z" fill="white"/>
<path d="M49.9619 95.9705V115.409V119.502V155.72H85.056V121.168H208.513V155.72H243.607V119.502V115.409V95.9705H49.9619Z" fill="#504F60"/>
<path opacity="0.1" d="M243.607 95.9705H49.9619V115.406H243.607V95.9705Z" fill="#33323D"/>
<path opacity="0.8" d="M233.171 108.571C234.761 108.571 236.05 107.282 236.05 105.691C236.05 104.101 234.761 102.812 233.171 102.812C231.58 102.812 230.291 104.101 230.291 105.691C230.291 107.282 231.58 108.571 233.171 108.571Z" fill="#8CCF4D"/>
<path opacity="0.8" d="M220.213 108.571C221.803 108.571 223.092 107.282 223.092 105.691C223.092 104.101 221.803 102.812 220.213 102.812C218.622 102.812 217.333 104.101 217.333 105.691C217.333 107.282 218.622 108.571 220.213 108.571Z" fill="#FA5959"/>
<path d="M198.798 30.4624H94.4163V92.3697H198.798V30.4624Z" fill="white"/>
<path d="M214.677 120.819C214.897 123.215 213.087 125.54 213.615 127.886C213.727 128.387 213.944 128.862 214.023 129.352C214.24 130.745 213.41 132.065 212.615 133.232L205.804 143.254C205.53 143.694 205.203 144.098 204.83 144.457C203.525 145.629 201.572 145.495 199.863 145.841C198.661 146.084 197.525 146.584 196.534 147.307C196.491 147.341 196.463 147.39 196.455 147.445C196.446 147.499 196.459 147.555 196.49 147.6C196.772 147.987 197.146 148.296 197.579 148.501C198.011 148.706 198.488 148.8 198.965 148.773C199.144 149.008 198.965 149.359 198.719 149.524C198.352 149.776 197.839 149.843 197.778 150.465C197.752 150.681 197.795 150.899 197.901 151.089C198.177 151.509 198.604 151.806 199.094 151.916C201.44 152.638 204 151.371 205.765 149.647C207.531 147.923 208.797 145.747 210.53 143.99C211.489 143.02 212.583 142.187 213.568 141.246C215.539 139.369 217.087 137.085 218.553 134.795C219.037 134.13 219.403 133.387 219.632 132.598C219.814 131.818 219.732 130.994 219.943 130.22C220.219 129.208 220.961 128.402 221.577 127.552C222.788 125.886 223.594 123.851 223.433 121.798C223.271 119.746 222.005 117.725 220.069 117.028C219.469 116.789 218.808 116.749 218.184 116.913C217.389 117.157 216.806 117.813 216.263 118.441L214.97 119.933C214.648 120.264 214.392 120.653 214.216 121.08C214.133 121.295 214.114 121.53 214.161 121.756C214.209 121.982 214.32 122.189 214.483 122.353" fill="#FBBEBE"/>
<path opacity="0.05" d="M214.677 120.819C214.897 123.215 213.087 125.54 213.615 127.886C213.727 128.387 213.944 128.862 214.023 129.352C214.24 130.745 213.41 132.065 212.615 133.232L205.804 143.254C205.53 143.694 205.203 144.098 204.83 144.457C203.525 145.629 201.572 145.495 199.863 145.841C198.661 146.084 197.525 146.584 196.534 147.307C196.491 147.341 196.463 147.39 196.455 147.445C196.446 147.499 196.459 147.555 196.49 147.6C196.772 147.987 197.146 148.296 197.579 148.501C198.011 148.706 198.488 148.8 198.965 148.773C199.144 149.008 198.965 149.359 198.719 149.524C198.352 149.776 197.839 149.843 197.778 150.465C197.752 150.681 197.795 150.899 197.901 151.089C198.177 151.509 198.604 151.806 199.094 151.916C201.44 152.638 204 151.371 205.765 149.647C207.531 147.923 208.797 145.747 210.53 143.99C211.489 143.02 212.583 142.187 213.568 141.246C215.539 139.369 217.087 137.085 218.553 134.795C219.037 134.13 219.403 133.387 219.632 132.598C219.814 131.818 219.732 130.994 219.943 130.22C220.219 129.208 220.961 128.402 221.577 127.552C222.788 125.886 223.594 123.851 223.433 121.798C223.271 119.746 222.005 117.725 220.069 117.028C219.469 116.789 218.808 116.749 218.184 116.913C217.389 117.157 216.806 117.813 216.263 118.441L214.97 119.933C214.648 120.264 214.392 120.653 214.216 121.08C214.133 121.295 214.114 121.53 214.161 121.756C214.209 121.982 214.32 122.189 214.483 122.353" fill="black"/>
<path d="M219.835 182.483C218.345 183.389 216.492 183.448 214.762 183.234C214.469 183.201 214.155 183.181 213.976 183.395C213.718 183.709 214.023 184.166 214.337 184.418C215.359 185.184 216.558 185.677 217.823 185.852C218.952 186.01 220.091 186.085 221.231 186.078C224.339 186.131 227.465 186.184 230.544 185.735C230.721 185.722 230.894 185.671 231.051 185.585C231.25 185.447 231.387 185.237 231.435 184.999C231.649 184.201 231.242 183.339 230.629 182.785C230.016 182.231 229.227 181.92 228.456 181.612L225.752 180.559C225.116 180.31 224.098 179.656 223.406 179.706C222.143 179.809 220.908 181.856 219.835 182.483Z" fill="#3F3D56"/>
<path opacity="0.05" d="M219.835 182.483C218.345 183.389 216.492 183.448 214.762 183.234C214.469 183.201 214.155 183.181 213.976 183.395C213.718 183.709 214.023 184.166 214.337 184.418C215.359 185.184 216.558 185.677 217.823 185.852C218.952 186.01 220.091 186.085 221.231 186.078C224.339 186.131 227.465 186.184 230.544 185.735C230.721 185.722 230.894 185.671 231.051 185.585C231.25 185.447 231.387 185.237 231.435 184.999C231.649 184.201 231.242 183.339 230.629 182.785C230.016 182.231 229.227 181.92 228.456 181.612L225.752 180.559C225.116 180.31 224.098 179.656 223.406 179.706C222.143 179.809 220.908 181.856 219.835 182.483Z" fill="black"/>
<path d="M221.72 146.577C220.597 148.075 219.43 149.802 219.708 151.658C219.858 152.658 220.418 153.541 220.829 154.465C221.342 155.735 221.723 157.056 221.963 158.406C222.386 160.367 222.808 162.335 223.066 164.326C223.359 166.575 221.981 173.082 221.852 175.349C221.82 175.894 221.758 176.486 221.377 176.879C221.227 177.035 221.028 177.173 220.963 177.363C220.922 177.557 220.954 177.76 221.051 177.932C221.688 179.366 222.987 180.43 224.429 181.04C225.872 181.65 229.382 182.697 230.948 182.753C231.156 182.778 231.367 182.75 231.561 182.671C231.772 182.544 231.938 182.354 232.036 182.128C233.168 179.967 232.08 172.273 232.098 169.83C232.098 167.777 232.593 165.772 232.505 163.737C232.432 162.103 231.995 160.511 231.837 158.881C231.576 156.209 232.065 153.529 232.558 150.89C232.933 148.87 233.309 146.846 233.789 144.847C234.083 143.63 234.423 142.398 235.094 141.328C235.625 140.486 236.346 139.785 236.953 138.982C238.636 136.777 239.383 133.998 239.032 131.247C238.997 130.977 235.127 132.229 234.789 132.375C233.4 132.966 232.122 133.789 231.01 134.809C230.13 135.66 229.412 136.8 228.626 137.756C227.517 139.105 226.423 140.465 225.344 141.835C224.119 143.409 222.911 144.989 221.72 146.577Z" fill="#464353"/>
<path opacity="0.05" d="M221.72 146.48C220.597 147.978 219.43 149.706 219.708 151.565C219.858 152.562 220.418 153.444 220.829 154.368C221.342 155.639 221.722 156.96 221.963 158.309C222.386 160.271 222.808 162.238 223.066 164.229C223.359 166.479 221.981 172.988 221.852 175.255C221.82 175.797 221.758 176.393 221.377 176.783C221.227 176.938 221.028 177.076 220.963 177.267C220.919 177.466 220.95 177.675 221.051 177.853C221.688 179.284 222.987 180.351 224.429 180.958C225.872 181.565 229.382 182.131 230.948 182.181C231.156 182.206 231.367 182.178 231.561 182.099C231.772 181.973 231.938 181.783 232.036 181.557C233.168 179.395 232.08 172.191 232.098 169.751C232.098 167.698 232.593 165.69 232.505 163.655C232.432 162.021 231.995 160.429 231.837 158.799C231.576 156.127 232.065 153.447 232.558 150.811C232.933 148.788 233.309 146.764 233.789 144.765C234.083 143.548 234.423 142.316 235.094 141.246C235.625 140.407 236.346 139.703 236.953 138.918C238.634 136.711 239.38 133.933 239.032 131.182C238.997 130.909 235.127 132.161 234.789 132.311C233.399 132.902 232.121 133.727 231.01 134.751C230.13 135.604 229.412 136.742 228.626 137.683C227.517 139.032 226.423 140.393 225.344 141.765C224.119 143.329 222.911 144.9 221.72 146.48Z" fill="black"/>
<path d="M209.202 113.585C212.689 113.585 215.516 110.759 215.516 107.272C215.516 103.785 212.689 100.958 209.202 100.958C205.715 100.958 202.889 103.785 202.889 107.272C202.889 110.759 205.715 113.585 209.202 113.585Z" fill="#FBBEBE"/>
<path d="M214.885 107.008C215.468 107.939 216.232 108.743 217.133 109.373C218.033 110.003 219.051 110.445 220.125 110.673L219.65 112.395C218.829 115.365 217.891 118.506 215.612 120.564C215.861 119.558 215.539 118.476 214.97 117.611C214.362 116.77 213.64 116.016 212.827 115.371L209.193 112.21C209.085 112.13 208.993 112.03 208.921 111.917C208.833 111.694 208.833 111.447 208.921 111.225C209.384 109.785 210.706 108.879 211.777 107.911C212.315 107.407 212.797 106.845 213.214 106.237C213.958 105.202 214.407 106.237 214.885 107.008Z" fill="#FBBEBE"/>
<path d="M200.883 100.926L200.743 99.7533C201.74 100.011 202.684 99.1669 203.32 98.2872C203.956 97.4075 204.549 96.3753 205.519 96.0117C206.692 95.566 207.947 96.2785 209.073 96.865C210.336 97.5675 211.721 98.0205 213.155 98.1992C213.384 98.2069 213.61 98.2444 213.83 98.3106C214.563 98.5716 214.912 99.4836 215.017 100.325C215.123 101.167 215.093 102.046 215.457 102.791C215.73 103.354 216.202 103.774 216.489 104.328C217.26 105.823 216.516 107.864 217.331 109.33L215.307 107.474C215.12 107.304 214.859 107.128 214.656 107.272C214.454 107.415 214.483 107.632 214.416 107.829C214.22 108.415 213.501 108.58 212.976 108.354C212.451 108.128 212.073 107.63 211.689 107.181C210.795 106.125 209.73 105.199 208.463 104.747C207.915 104.537 207.328 104.446 206.742 104.481C206.156 104.516 205.584 104.676 205.065 104.949C204.121 105.483 203.429 106.726 202.273 106.77C200.687 106.829 200.027 103.876 199.291 102.709C199.559 102.506 199.747 102.216 199.823 101.889C199.9 101.561 199.858 101.218 199.707 100.917C199.836 100.868 200.863 100.736 200.883 100.926Z" fill="#464353"/>
<path d="M227.198 182.433C225.95 183.546 224.33 184.15 222.659 184.125C222.233 184.125 221.644 184.207 221.641 184.632C221.649 184.759 221.691 184.881 221.764 184.984C222.294 185.864 223.129 186.517 224.11 186.82C225.019 187.096 225.993 187.049 226.943 187.002L229.714 186.858C230.236 186.829 230.761 186.802 231.283 186.738C231.805 186.673 232.368 186.565 232.913 186.486C234.249 186.295 235.6 186.231 236.948 186.295C237.306 186.31 237.719 186.295 237.942 186.025C238.165 185.755 238.045 185.269 237.962 184.879C237.798 184.075 237.962 183.234 237.81 182.427C237.543 181.011 236.326 179.929 234.983 179.416C233.737 178.941 231.526 178.398 230.344 179.187C229.077 180.037 228.315 181.421 227.198 182.433Z" fill="#3F3D56"/>
<path d="M229.942 135.044C230.189 136.217 231.312 137.096 231.347 138.269C231.373 139.219 230.693 140.029 230.206 140.835C229.741 141.68 229.349 142.563 229.033 143.474C228.108 145.84 226.961 148.113 225.609 150.263C224.958 151.292 224.23 152.412 224.38 153.623C224.482 154.188 224.681 154.732 224.966 155.23L226.916 159.103C227.345 159.877 227.679 160.699 227.913 161.552C228.08 162.288 228.098 163.05 228.207 163.801C228.514 166.176 229.629 168.569 228.972 170.871C228.913 171.07 228.708 171.311 228.553 171.164C229.195 172.366 229.726 173.58 229.664 174.944C229.638 175.659 229.418 176.41 229.684 177.073C229.835 177.331 229.935 177.616 229.978 177.911C229.978 178.105 229.887 178.29 229.866 178.498C229.813 179.046 230.315 179.504 230.84 179.671C231.365 179.838 231.931 179.832 232.458 179.99C233.476 180.284 234.197 181.163 235.068 181.773C235.95 182.385 236.992 182.724 238.065 182.75C238.217 182.766 238.371 182.735 238.505 182.662C238.582 182.595 238.644 182.513 238.686 182.42C238.728 182.328 238.751 182.227 238.751 182.125C238.798 181.64 238.725 181.15 238.537 180.699C238.35 180.249 238.055 179.851 237.678 179.542C237.514 179.437 237.378 179.294 237.282 179.125C237.233 178.975 237.22 178.815 237.244 178.659C237.402 176.527 237.364 174.386 237.13 172.261C237.024 171.588 236.99 170.906 237.027 170.226C237.086 169.66 237.256 169.097 237.191 168.531C237.127 167.965 236.842 167.455 236.672 166.909C236.379 165.942 236.455 164.904 236.423 163.889C236.37 162.13 235.968 160.405 235.567 158.693C235.411 158.021 235.235 157.315 234.757 156.816C234.353 156.394 233.699 155.986 233.851 155.423C233.935 155.215 234.06 155.026 234.221 154.869C234.41 154.633 234.549 154.36 234.629 154.068C234.709 153.776 234.729 153.471 234.687 153.171C234.859 153.217 235.041 153.201 235.201 153.126C235.362 153.051 235.492 152.922 235.567 152.761C238.737 151.268 241.299 148.277 242.428 144.958C242.492 144.713 242.59 144.479 242.722 144.263C243.015 143.852 243.525 143.676 243.977 143.448C245.396 142.735 246.378 141.395 247.278 140.084C247.803 139.322 248.325 138.536 248.551 137.642C248.674 137.064 248.733 136.474 248.727 135.882L248.806 132.827C248.822 132.629 248.802 132.431 248.748 132.24C248.673 132.058 248.561 131.893 248.419 131.757C247.559 130.841 246.429 130.224 245.194 129.997C244.361 129.848 243.51 129.877 242.669 129.807C241.035 129.672 239.423 129.167 237.789 129.285C235.221 129.472 232.936 131.252 231.725 133.525C231.3 134.337 230.854 135.044 229.942 135.044Z" fill="#464353"/>
<path d="M215.691 115.174C215.729 115.646 215.666 116.119 215.507 116.564C215.307 116.992 214.803 117.324 214.366 117.151C214.498 116.858 214.146 116.509 213.821 116.547C213.66 116.583 213.51 116.657 213.384 116.764C213.258 116.871 213.161 117.006 213.099 117.16C212.881 117.595 212.808 118.09 212.891 118.57C212.994 119.156 213.34 119.743 213.249 120.329C213.175 120.828 212.809 121.326 213.005 121.796C213.132 122.006 213.29 122.196 213.475 122.359C213.732 122.675 213.859 123.078 213.828 123.484C213.796 123.891 213.61 124.27 213.307 124.543L218.228 124.64C218.049 125.464 218.416 126.305 218.838 127.036C220.019 129.042 221.65 130.749 223.6 132.02C225.551 133.292 227.77 134.095 230.083 134.366C229.958 134.44 229.851 134.541 229.77 134.661C229.689 134.781 229.635 134.917 229.612 135.06C229.59 135.204 229.6 135.35 229.64 135.489C229.681 135.628 229.752 135.757 229.849 135.865C230.247 136.261 230.925 136.211 231.426 135.953C231.928 135.695 232.324 135.27 232.781 134.941C233.588 134.366 234.574 134.1 235.561 134.191C236.177 134.249 236.775 134.449 237.394 134.484C239.217 134.581 240.783 133.27 242.528 132.724C243.807 132.331 245.252 132.331 246.34 131.534C246.803 131.191 247.182 130.628 247.047 130.068C246.932 129.746 246.751 129.452 246.516 129.206C245.897 128.408 245.534 127.446 245.094 126.54C244.217 124.744 243.01 123.129 241.537 121.778C240.427 120.805 239.252 119.911 238.018 119.101C237.718 118.877 237.398 118.68 237.062 118.514C236.614 118.368 236.177 118.191 235.754 117.984C235.168 117.62 234.842 116.978 234.4 116.459C233.423 115.321 231.925 114.796 230.723 113.902C229.916 113.315 229.207 112.512 228.242 112.222C227.776 112.081 227.277 112.069 226.808 111.928C225.746 111.606 224.972 110.662 223.928 110.28C223.101 109.987 222.192 110.057 221.319 109.949C220.357 109.83 219.439 109.481 218.641 108.931C218.377 108.718 218.08 108.548 217.762 108.427C216.445 108.025 216.337 110.48 216.213 111.333C216.017 112.638 215.691 113.893 215.691 115.174Z" fill="#9B2990"/>
<path d="M216.976 123.414C217.196 125.81 215.387 128.132 215.914 130.481C216.026 130.982 216.243 131.457 216.322 131.947C216.542 133.34 215.709 134.66 214.914 135.824L208.103 145.823C207.829 146.263 207.502 146.666 207.129 147.025C205.824 148.198 203.871 148.063 202.162 148.409C200.96 148.654 199.825 149.154 198.834 149.875C198.79 149.91 198.762 149.959 198.754 150.013C198.745 150.068 198.758 150.123 198.79 150.169C199.071 150.556 199.445 150.866 199.877 151.071C200.31 151.276 200.787 151.369 201.264 151.342C201.443 151.579 201.264 151.928 201.018 152.092C200.652 152.347 200.138 152.415 200.077 153.036C200.051 153.252 200.094 153.471 200.2 153.661C200.477 154.08 200.904 154.376 201.393 154.488C203.739 155.209 206.299 153.943 208.064 152.218C209.83 150.494 211.097 148.318 212.832 146.562C213.791 145.591 214.885 144.758 215.867 143.817C217.841 141.94 219.372 139.656 220.852 137.366C221.336 136.702 221.701 135.959 221.931 135.17C222.113 134.39 222.031 133.566 222.242 132.792C222.518 131.78 223.26 130.971 223.876 130.123C225.087 128.458 225.893 126.423 225.732 124.37C225.57 122.317 224.304 120.297 222.368 119.599C221.769 119.359 221.107 119.319 220.483 119.485C219.691 119.728 219.105 120.385 218.562 121.012L217.269 122.505C216.947 122.835 216.692 123.224 216.518 123.652C216.435 123.866 216.415 124.1 216.462 124.326C216.509 124.551 216.62 124.758 216.782 124.921" fill="#FBBEBE"/>
<path d="M220.424 113.57C219.527 113.623 218.542 113.711 217.909 114.35C217.645 114.644 217.431 114.979 217.275 115.342C216.662 116.594 216.064 117.901 216.02 119.294C215.982 120.409 216.313 121.497 216.475 122.599C216.615 123.514 216.258 124.446 216.181 125.373C217.293 125.033 218.759 124.57 219.768 123.995C220.428 123.562 221.131 123.197 221.864 122.904C222.935 122.549 224.732 123.159 225.741 123.661C225.797 122.945 225.263 121.705 225.319 120.989C225.327 120.69 225.381 120.393 225.477 120.11C225.629 119.809 225.808 119.523 226.013 119.256C226.402 118.627 226.582 117.89 226.525 117.152C226.469 116.415 226.18 115.714 225.7 115.151C224.8 114.136 223.386 113.755 222.04 113.6C221.192 113.501 220.337 113.47 219.483 113.509" fill="#9B2990"/>
<path d="M87.5751 93.0559L81.7925 84.6695C81.7925 84.6695 81.684 82.5934 81.3058 82.1096C80.9275 81.6257 81.2236 80.5466 81.2236 80.5466C81.2236 80.5466 81.6312 79.9602 81.2794 79.8986C80.9275 79.837 81.2236 78.5233 81.2236 78.5233L81.1973 76.4208C81.1973 76.4208 81.5227 74.3975 81.253 73.9137C81.1733 73.7824 81.1334 73.6308 81.1381 73.4773C81.1428 73.3238 81.1918 73.1749 81.2794 73.0487C81.2794 73.0487 81.6019 71.8904 81.2794 71.5825C80.9568 71.2746 81.036 69.48 81.1152 68.049C81.1943 66.6181 80.5492 65.8117 80.5492 65.5976C80.5492 65.3836 78.4145 63.2781 78.4145 63.0875C78.4145 62.8969 77.0627 62.1169 76.2504 61.9146C75.4382 61.7123 75.0364 61.5364 75.0628 61.4279C75.0892 61.3194 73.7931 60.8912 73.7931 60.8912C73.7931 60.8912 72.6583 60.8091 72.2243 60.2432C71.7903 59.6773 70.4649 59.513 70.4327 59.5072L70.4063 59.3957C70.4063 59.3547 70.3916 59.3136 70.3828 59.2726C70.4899 59.102 70.5878 58.9258 70.6761 58.7448L70.7523 58.5806C71.2272 58.5836 71.6914 58.4392 72.0806 58.1671C72.2723 58.0082 72.4289 57.8112 72.5405 57.5886C72.652 57.366 72.7161 57.1226 72.7287 56.874C72.7518 56.3754 72.6425 55.8797 72.412 55.4371C72.1745 54.9533 71.8255 54.4489 71.9487 53.9211C72.0015 53.6953 72.1364 53.4959 72.2067 53.2731C72.3118 52.838 72.2423 52.3791 72.0132 51.9946C71.8079 51.6046 71.5235 51.2585 71.2948 50.8803C71.0047 50.396 70.8106 49.8604 70.723 49.3027C70.7067 49.006 70.6361 48.7148 70.5148 48.4435C70.3921 48.2523 70.2302 48.0894 70.0398 47.9655C69.1936 47.3619 68.1727 47.0529 67.1338 47.0858C66.3978 47.1093 65.6676 47.3087 64.9346 47.2178C64.4978 47.1427 64.0682 47.0309 63.6502 46.8835C62.7441 46.6137 61.6973 46.5052 60.9085 47.0243C60.1197 47.5433 59.8059 48.5637 59.2693 49.3701C58.7972 50.0739 58.0964 50.6662 57.7445 51.4227C57.7445 51.4227 57.7445 51.3934 57.7445 51.3817C57.6559 51.5539 57.588 51.736 57.5422 51.9242C57.4415 52.5216 57.4827 53.1343 57.6624 53.7129C57.7021 54.0244 57.8582 54.3093 58.0993 54.5105C58.3662 54.6835 58.7327 54.6424 59.0435 54.6982L59.0083 54.8506C58.6919 56.3664 58.9567 57.9458 59.7503 59.2754C60.5438 60.6051 61.8081 61.5879 63.2925 62.029C63.2925 62.0847 63.2925 62.1375 63.2925 62.1932C63.2918 62.3481 63.282 62.5028 63.2631 62.6565C63.2631 62.6565 60.5449 62.0964 59.8147 62.4747C59.0846 62.853 57.6536 63.1491 57.4366 63.3544C57.2196 63.5597 56.6801 63.4101 56.1933 64.6769C55.7065 65.9436 55.6538 67.2368 55.0204 67.8321C54.387 68.4273 54.0762 68.829 54.0468 69.2601C54.0175 69.6912 54.1289 69.7996 53.8856 69.9345C53.6422 70.0694 53.2991 70.6354 53.3988 70.8524C53.4361 71.0007 53.4281 71.1568 53.3758 71.3005C53.3235 71.4442 53.2294 71.569 53.1056 71.6587C52.9773 71.7489 52.8749 71.871 52.8085 72.013C52.7422 72.155 52.7142 72.3119 52.7273 72.4681C52.7273 72.4681 52.5631 73.0545 52.1848 73.1982C51.8065 73.3419 51.5632 74.2216 51.5632 74.2216L50.3374 75.6291L47.9095 72.9431C47.7271 72.7423 47.4727 72.6219 47.2018 72.6082C46.9309 72.5945 46.6656 72.6885 46.4638 72.8698L45.2704 73.943C44.8105 74.0547 44.3947 74.302 44.0769 74.6526C43.8183 74.9209 43.6089 75.2326 43.4582 75.5734L42.8072 76.1599C42.6016 76.4147 42.4757 76.7245 42.4454 77.0505C42.4152 77.3766 42.4819 77.7043 42.6371 77.9926L44.1942 79.7138V79.7285C43.6426 79.7771 43.1184 79.9906 42.6899 80.3414C40.3675 82.394 40.3441 84.2795 40.6901 85.1416C41.0361 86.0037 43.986 89.3202 43.986 89.3202C43.986 89.3202 45.6985 91.5458 48.1704 92.7275L48.1529 92.7481C48.102 92.8011 48.054 92.8569 48.0092 92.9152L47.9681 92.968L47.93 93.0208L47.886 93.0853C47.8742 93.1022 47.8634 93.1198 47.8538 93.138L47.8068 93.2143C47.796 93.2312 47.7862 93.2489 47.7775 93.2671C47.757 93.3023 47.7394 93.3375 47.7218 93.3726C47.7154 93.3841 47.7095 93.3958 47.7042 93.4078C47.6808 93.4547 47.6573 93.5017 47.6368 93.5544L47.6133 93.6072C47.5986 93.6424 47.5869 93.6776 47.5723 93.7157C47.5631 93.7387 47.5553 93.7622 47.5488 93.7861L47.5136 93.8917C47.5041 93.9165 47.4962 93.942 47.4902 93.9679C47.4902 94.006 47.4667 94.0441 47.4579 94.0852C47.4491 94.1262 47.4432 94.1321 47.4374 94.1585C47.4315 94.1849 47.408 94.2846 47.3963 94.352C47.3963 94.3755 47.3963 94.4019 47.3817 94.4283C47.367 94.4547 47.367 94.5192 47.3582 94.5661C47.3494 94.613 47.3582 94.6306 47.3582 94.6658L47.3406 94.7977V94.9033C47.3406 94.9532 47.3406 95.003 47.3259 95.0558C47.3113 95.1086 47.3259 95.1174 47.3259 95.1496C47.3259 95.2347 47.3259 95.3197 47.3259 95.4106C47.2732 98.5658 47.4579 99.0232 47.4579 99.0232C47.5785 99.3147 47.7752 99.5683 48.0275 99.7577C48.2798 99.947 48.5783 100.065 48.8918 100.099C49.0456 100.111 49.2004 100.104 49.3522 100.076C50.7597 99.8326 54.0439 99.2666 55.2168 99.4895C55.9177 99.6185 57.2108 99.425 58.1316 99.252L58.375 99.205L58.5421 99.7416L59.0758 99.595L59.5303 99.856L59.8235 100.023C60.3572 101.829 62.5213 101.214 62.5213 101.214L63.0344 101.507L68.251 101.642C68.8366 101.995 69.4554 102.289 70.0984 102.522C70.1833 102.549 70.2707 102.569 70.3594 102.58C70.847 102.62 71.3367 102.629 71.8255 102.607C72.2243 102.607 72.5322 102.58 72.5322 102.58C72.5322 102.58 72.4794 101.164 72.4032 99.5774C74.0202 99.5374 75.6337 99.4053 77.2357 99.1816C80.0214 98.6948 81.1826 96.1613 81.6107 94.8065C81.7388 95.3599 81.8299 95.9213 81.8834 96.4868C81.9973 96.9841 82.1422 97.4738 82.3174 97.9529C82.4668 98.3359 82.6638 98.6984 82.9039 99.032C84.9565 98.3312 83.7132 97.2726 83.2821 96.821C82.8511 96.3695 83.5754 95.9853 83.5754 95.9853C83.5754 95.9853 84.1442 95.6071 84.0885 95.2581C84.0328 94.9092 84.0064 94.5309 85.8479 94.5573C87.6894 94.5837 87.5751 93.0559 87.5751 93.0559ZM59.0377 75.8402C59.0611 75.9927 59.3309 77.6554 59.5479 78.0923C59.6126 78.3807 59.6334 78.6773 59.6095 78.972C58.5216 78.884 57.3868 78.8371 57.3868 78.8371C57.4187 78.8767 57.4389 78.9244 57.4454 78.9749L57.2724 78.9368L57.0261 78.8781L59.0318 75.8256L59.0377 75.8402ZM55.0614 82.1623L56.9469 82.4556L57.1053 82.479C57.0519 82.7696 57.0196 83.0636 57.0085 83.3587C57.0085 83.3881 57.0495 83.4203 57.1111 83.4584C57.0849 83.6065 57.0731 83.7567 57.0759 83.9071C57.1052 84.0537 57.985 84.3763 58.9966 84.6431C58.9819 84.6988 58.9702 84.7516 58.9555 84.7985C58.0612 84.3293 56.6566 84.1094 56.4953 83.7605C56.3341 83.4115 51.5485 81.7401 51.5485 81.7401L51.0735 81.5026L52.3314 81.7401L52.6774 81.7049C53.4613 81.9089 54.2577 82.0617 55.0614 82.1623V82.1623Z" fill="url(#paint0_linear_213_1003)"/>
<path d="M81.4231 94.2287C81.4231 94.2287 80.6753 98.7562 76.8721 99.4248C73.0689 100.093 60.3719 99.9614 60.3719 99.9614C60.3719 99.9614 53.1114 98.9146 50.487 92.7831C47.8626 86.6516 46.1736 84.209 48.4344 84.1034C50.6952 83.9978 62.8204 88.2087 63.5154 88.2556C64.2103 88.3025 82.0946 78.9337 81.4231 94.2287Z" fill="#65617D"/>
<path opacity="0.05" d="M81.4231 94.2287C81.4231 94.2287 80.6753 98.7562 76.8721 99.4248C73.0689 100.093 60.3719 99.9614 60.3719 99.9614C60.3719 99.9614 53.1114 98.9146 50.487 92.7831C47.8626 86.6516 46.1736 84.209 48.4344 84.1034C50.6952 83.9978 62.8204 88.2087 63.5154 88.2556C64.2103 88.3025 82.0946 78.9337 81.4231 94.2287Z" fill="black"/>
<path d="M47.3757 99.2694C47.4936 99.5593 47.6878 99.8119 47.9377 100C48.1875 100.189 48.4838 100.306 48.795 100.34C48.9489 100.349 49.1035 100.34 49.2553 100.313C50.6482 100.073 53.9148 99.5098 55.0672 99.7268C55.7592 99.8529 57.0407 99.6623 57.9526 99.4922C58.5596 99.3779 59.0053 99.2694 59.0053 99.2694C59.0053 99.2694 57.9321 95.7066 57.8001 95.601C57.6682 95.4955 52.9765 92.6687 52.9765 92.6687L49.2641 92.4019C48.7643 92.4766 48.3127 92.7413 48.0032 93.1408C47.6132 93.6158 47.276 94.3929 47.2526 95.6685C47.191 98.809 47.3757 99.2694 47.3757 99.2694Z" fill="#3F3D56"/>
<path opacity="0.05" d="M47.3758 99.2694C47.4937 99.5593 47.6879 99.8119 47.9378 100C48.1876 100.189 48.4839 100.306 48.7951 100.34C48.4315 99.8704 48.0947 99.3809 47.7863 98.8735L47.8069 96.2755C47.7331 95.5629 47.8273 94.843 48.0819 94.1733C48.3365 93.5037 48.7445 92.9031 49.273 92.4195V92.4195C49.273 92.4195 47.3172 92.5514 47.2615 95.6861C47.2057 98.8208 47.3758 99.2694 47.3758 99.2694Z" fill="black"/>
<path opacity="0.1" d="M63.477 93.5865L66.9343 90.88L72.3708 85.5226L70.9046 85.4552C70.6847 85.596 70.0689 86.0417 70.0454 86.5753C70.0191 87.2293 68.5793 86.6223 67.8257 86.9947C67.0721 87.3671 63.4067 92.0676 62.7645 92.0353C62.1223 92.0031 61.6121 91.7099 61.3423 92.1673L61.3247 92.1966L63.477 93.5865Z" fill="black"/>
<path opacity="0.1" d="M47.9946 93.1468C48.1178 93.2054 48.2439 93.2641 48.37 93.3169C50.9944 94.4429 54.2346 96.8005 54.478 97.2286C54.6246 97.4896 56.5043 98.6302 57.9528 99.4865C58.5598 99.3721 59.0055 99.2636 59.0055 99.2636C59.0055 99.2636 57.9323 95.7009 57.8003 95.5953C57.6684 95.4897 52.9767 92.663 52.9767 92.663L49.2643 92.3961C48.7596 92.4716 48.3041 92.7409 47.9946 93.1468V93.1468Z" fill="black"/>
<path d="M40.7108 85.4699C41.0568 86.3261 43.9774 89.6221 43.9774 89.6221C43.9774 89.6221 45.8247 92.0324 48.4521 93.1409C51.0795 94.2493 54.3168 96.6245 54.5572 97.0526C54.7126 97.3282 56.8063 98.5891 58.2783 99.4542L58.6097 99.6477L59.3398 100.073L59.7269 100.293C59.7269 100.293 60.6242 99.5744 61.5186 98.8501C62.4129 98.1258 63.278 97.4162 63.278 97.3839C63.278 97.3517 63.6533 96.3928 63.5712 96.34C63.4891 96.2872 63.3454 95.9412 63.0052 95.5102C62.6462 95.0322 62.1789 94.6463 61.6417 94.3842C60.8645 93.9847 60.2447 93.3349 59.8823 92.5397C59.8823 92.5397 59.765 92.4547 59.5891 92.3403C59.2244 92.0897 58.8169 91.9078 58.3868 91.8037C57.8004 91.7304 56.6978 90.5252 56.6978 90.5252C56.269 90.2461 55.9115 89.8705 55.6539 89.4285C55.3607 88.8421 51.2173 85.986 50.8331 85.7221L60.9028 92.1908L63.3131 93.7391L66.7704 91.0354L72.2069 85.6781L70.4123 85.596C67.7732 85.4816 63.0815 85.3027 62.495 85.4376C62.0146 85.5482 61.5196 85.5809 61.0289 85.5344C61.0289 85.5344 59.6917 85.593 58.8062 85.1268C57.9206 84.6606 56.5277 84.4406 56.3665 84.0946C56.2052 83.7486 51.4665 82.0889 51.4665 82.0889C51.4665 82.0889 45.0154 78.661 42.7077 80.6961C40.3999 82.7311 40.3618 84.6078 40.7108 85.4699Z" fill="#65617D"/>
<path d="M61.5215 65.8086L62.3513 68.5679L63.4246 74.7815L67.3627 75.0484L68.4887 73.1717L69.6264 71.2833C69.6264 71.2833 70.3361 68.7732 70.8463 66.3452C71.2949 64.1958 71.5911 62.108 71.1014 61.8822C70.6645 61.6828 70.38 60.9586 70.1924 60.1786C70.1689 60.0847 70.1484 59.985 70.1308 59.8853C69.9995 59.2261 69.9113 58.5591 69.8669 57.8884C69.8669 57.8884 61.6183 57.4603 62.7707 60.8618C62.9762 61.4428 63.0814 62.0547 63.0815 62.671C63.0815 62.8294 63.0815 62.9848 63.0522 63.1314C62.995 63.659 62.8295 64.169 62.5661 64.6297C62.3027 65.0904 61.9471 65.4917 61.5215 65.8086V65.8086Z" fill="#EE8E9E"/>
<path d="M59.8091 65.3542L60.1023 70.0459L60.7709 74.0368L61.5216 75.8871L62.1931 85.9978C62.1931 85.9978 68.6442 86.7455 70.2218 85.9831C70.3381 85.9385 70.4397 85.8624 70.515 85.7632C72.4122 82.8983 71.7906 74.5998 71.7906 74.5998L72.5119 69.2424L72.031 66.4626L70.8581 66.3394L69.9608 66.2427C69.9608 66.2427 69.7585 66.4919 69.4652 66.879C68.6706 67.9258 67.2103 69.9902 67.31 70.8494C67.4419 72.0223 67.1487 73.2333 66.6913 73.421C66.2338 73.6087 65.8614 73.9312 65.7822 73.6087C65.6683 73.3383 65.6396 73.0396 65.7001 72.7524C65.7822 72.295 65.3512 70.9021 65.3512 70.9021C65.3512 70.9021 64.6298 69.2688 64.6826 68.5739C64.7354 67.8789 64.6034 67.0725 64.3894 66.8849C64.1753 66.6972 63.8792 66.5095 64.1196 65.6533C64.3601 64.797 63.064 63.1285 63.064 63.1285L59.8091 65.3542Z" fill="#E3E8F4"/>
<path opacity="0.1" d="M68.3389 77.06L68.6087 85.0682L70.154 85.9273C70.2701 85.8808 70.3714 85.8038 70.4473 85.7045C72.3445 82.8396 71.7228 74.5411 71.7228 74.5411L72.4471 69.1838L71.9633 66.4039L70.7904 66.2808C71.2419 64.1314 71.5352 62.0465 71.0455 61.8178C70.6086 61.6184 70.3241 60.8941 70.1394 60.117L69.3037 65.7823C69.3037 65.7823 69.374 66.2925 69.3975 66.8203C69.4322 67.154 69.4094 67.4913 69.3301 67.8173C69.2217 68.2558 69.2038 68.7117 69.2773 69.1574C68.7934 70.0077 68.553 71.5853 68.4357 73.1072C68.2774 75.1305 68.3389 77.06 68.3389 77.06Z" fill="black"/>
<path d="M70.1631 59.9763C70.1631 59.9763 71.5149 60.1435 71.9431 60.7065C72.3712 61.2695 73.4972 61.3516 73.4972 61.3516C73.4972 61.3516 74.7816 61.7797 74.7552 61.8853C74.7288 61.9908 75.1305 62.155 75.9281 62.3691C76.7257 62.5832 78.0716 63.3602 78.0716 63.542C78.0716 63.7238 80.1858 65.8175 80.1858 66.0316C80.1858 66.2456 80.828 67.0491 80.7488 68.4683C80.6697 69.8876 80.5876 71.6939 80.9101 71.9871C81.2327 72.2804 80.9101 73.4328 80.9101 73.4328C80.8234 73.5582 80.7749 73.7061 80.7702 73.8585C80.7655 74.0109 80.8049 74.1614 80.8837 74.2919C81.1506 74.7728 80.828 76.7815 80.828 76.7815L80.8573 78.8722C80.8573 78.8722 80.5641 80.183 80.9101 80.2387C81.2561 80.2944 80.8573 80.8809 80.8573 80.8809C80.8573 80.8809 80.5641 81.9512 80.9365 82.435C81.3089 82.9189 81.4174 84.9773 81.4174 84.9773L87.1501 93.3081C87.1501 93.3081 87.2322 94.8358 85.4112 94.8094C83.5903 94.7831 83.6137 95.1584 83.6694 95.5044C83.7252 95.8504 83.1592 96.2287 83.1592 96.2287C83.1592 96.2287 82.4379 96.604 82.866 97.0585C83.2941 97.513 84.5257 98.5599 82.4906 99.2549C82.2509 98.9242 82.0538 98.5646 81.9042 98.1845C81.7317 97.712 81.5887 97.2292 81.4761 96.7389C81.4761 96.7389 81.2884 94.7009 80.9131 94.4341C80.5377 94.1673 80.5905 92.88 80.5905 92.88C80.5905 92.88 81.1271 91.8361 80.3764 91.4138C79.6258 90.9915 68.7527 84.9627 68.7527 84.9627L68.4888 76.9516C68.4888 76.9516 68.3011 71.0312 69.4271 69.0489C69.3536 68.6033 69.3716 68.1473 69.4799 67.7089C69.6676 67.228 69.4535 65.6738 69.4535 65.6738L70.1631 59.9763Z" fill="#3F3D56"/>
<path opacity="0.1" d="M63.143 63.2018C63.143 63.2018 60.4512 62.6476 59.7269 63.0229C59.0026 63.3983 57.5863 63.6915 57.381 63.9026C57.1758 64.1138 56.6333 63.9583 56.1494 65.2163C55.6656 66.4743 55.6158 67.7616 54.997 68.351C54.3783 68.9404 54.0616 69.3421 54.0352 69.7702C54.0088 70.1983 54.1144 70.3068 53.874 70.4388C53.6335 70.5707 53.2875 71.1367 53.3901 71.3507C53.4928 71.5648 58.9615 76.28 58.9615 76.28C58.9615 76.28 59.2313 78.0746 59.4718 78.5291C59.7122 78.9836 59.2049 85.2529 58.6683 85.681C58.1317 86.1091 62.2721 86.074 62.2721 86.074C62.2721 86.074 62.4598 81.9687 62.6211 81.7458C62.7824 81.523 62.5126 77.1392 62.5126 77.1392C62.5126 77.1392 62.4862 73.3887 62.8351 72.3976C63.1841 71.4064 63.1284 68.1105 63.1284 68.1105C63.1284 68.1105 63.4363 66.1341 63.8116 65.6737C64.1869 65.2134 63.143 63.2018 63.143 63.2018Z" fill="black"/>
<path d="M63.0638 63.1227C63.0638 63.1227 60.3719 62.5685 59.6477 62.9409C58.9234 63.3133 57.5041 63.6124 57.3018 63.8206C57.0995 64.0288 56.5511 63.8734 56.0702 65.1343C55.5893 66.3952 55.5336 67.6766 54.9178 68.266C54.302 68.8554 53.9795 69.2571 53.9531 69.6853C53.9267 70.1134 54.0352 70.2219 53.7918 70.3568C53.5484 70.4916 53.2053 71.0517 53.3109 71.2658C53.4165 71.4798 58.8823 76.195 58.8823 76.195C58.8823 76.195 59.1492 77.9896 59.3925 78.4441C59.6359 78.8986 59.1228 85.1679 58.5862 85.5961C58.0495 86.0242 62.2047 85.9861 62.2047 85.9861C62.2047 85.9861 62.3923 81.8808 62.5507 81.6609C62.709 81.441 62.4451 77.0513 62.4451 77.0513C62.4451 77.0513 62.4187 73.3038 62.7677 72.3126C63.1166 71.3215 63.0756 68.0256 63.0756 68.0256C63.0756 68.0256 63.3834 66.0492 63.7588 65.5888C64.1341 65.1284 63.0638 63.1227 63.0638 63.1227Z" fill="#3F3D56"/>
<path opacity="0.1" d="M62.7824 60.856C62.988 61.437 63.0931 62.0489 63.0933 62.6652C64.409 63.0506 65.8158 62.9859 67.0906 62.4813C68.3654 61.9766 69.4353 61.061 70.1308 59.8795C69.9995 59.2203 69.9113 58.5533 69.8669 57.8826C69.8669 57.8826 61.63 57.4515 62.7824 60.856Z" fill="black"/>
<path d="M58.709 56.6218C58.7079 58.1939 59.3102 59.7065 60.3917 60.8476C61.4731 61.9887 62.9512 62.6713 64.5211 62.7546C66.0911 62.8379 67.6331 62.3156 68.8292 61.2953C70.0254 60.275 70.7844 58.8347 70.9497 57.2713C71.115 55.7078 70.6741 54.1406 69.7178 52.8927C68.7615 51.6449 67.3628 50.8115 65.8102 50.5646C64.2576 50.3177 62.6694 50.6761 61.3732 51.5658C60.077 52.4554 59.1717 53.8086 58.8439 55.3462C58.754 55.7654 58.7088 56.193 58.709 56.6218V56.6218Z" fill="#EE8E9E"/>
<path d="M54.7712 70.8259L53.305 71.2804C53.3425 71.4283 53.3346 71.5841 53.2823 71.7274C53.23 71.8707 53.1357 71.9949 53.0118 72.0839C52.8842 72.1729 52.7825 72.2942 52.7171 72.4353C52.6517 72.5765 52.6249 72.7325 52.6394 72.8874C52.6394 72.8874 52.4781 73.4738 52.1028 73.6116C51.7274 73.7495 51.487 74.6292 51.487 74.6292L50.2554 76.0484C50.2554 76.0484 49.798 76.4237 49.8801 76.6114C49.9622 76.7991 49.3962 76.8519 49.3962 76.8519L49.6895 81.6198L52.2347 82.1037L53.8153 81.9424L55.0996 81.4615L56.2256 80.79L56.7329 79.4792L58.9849 76.0484L54.7712 70.8259Z" fill="#3F3D56"/>
<path d="M49.7627 77.2184C49.7627 77.2184 46.4961 72.5061 44.0564 75.0485C41.6167 77.5908 45.0475 81.7195 45.851 81.5846C46.6545 81.4497 50.487 81.2357 50.487 81.2357L49.7627 77.2184Z" fill="#EE8E9E"/>
<path d="M57.4586 75.1807L43.0284 67.8155C42.8063 67.7021 42.5343 67.7903 42.4209 68.0124L36.794 79.0368C36.6806 79.259 36.7688 79.531 36.9909 79.6443L51.4211 87.0096C51.6432 87.1229 51.9152 87.0348 52.0286 86.8126L57.6555 75.7883C57.7689 75.5661 57.6807 75.2941 57.4586 75.1807Z" fill="#3F3D56"/>
<path d="M56.1162 75.8357L43.3105 69.2996L38.3848 78.9502L51.1905 85.4862L56.1162 75.8357Z" fill="#9B2990"/>
<path d="M40.3557 74.1043C40.4852 74.1043 40.5903 73.9993 40.5903 73.8697C40.5903 73.7402 40.4852 73.6351 40.3557 73.6351C40.2261 73.6351 40.1211 73.7402 40.1211 73.8697C40.1211 73.9993 40.2261 74.1043 40.3557 74.1043Z" fill="#E6E8EC"/>
<path d="M54.2169 81.3618C54.4323 81.3618 54.6069 81.1872 54.6069 80.9718C54.6069 80.7565 54.4323 80.5818 54.2169 80.5818C54.0015 80.5818 53.8269 80.7565 53.8269 80.9718C53.8269 81.1872 54.0015 81.3618 54.2169 81.3618Z" fill="#E6E8EC"/>
<path d="M47.6485 78.2094C47.6192 81.7458 54.9324 82.4965 54.9324 82.4965L56.8003 82.7897L57.639 82.9217L57.9879 79.4674C57.9879 79.4674 57.6038 79.4088 57.1258 79.2973C56.4162 79.1331 55.4984 78.8487 55.3078 78.447C54.9999 77.7813 47.6691 74.673 47.6485 78.2094Z" fill="#EE8E9E"/>
<path opacity="0.1" d="M58.844 55.3462C59.0121 55.3586 59.1707 55.4291 59.2926 55.5456C59.4979 55.7655 59.5096 56.1555 59.7794 56.2904C59.8803 56.3329 59.9913 56.3452 60.099 56.3256C60.8116 56.2259 61.2221 55.4224 61.9083 55.1996C62.3072 55.0971 62.7291 55.1333 63.1047 55.3022C63.2573 55.3516 63.3946 55.4395 63.5035 55.5573C63.7322 55.8505 63.5709 56.2904 63.6765 56.6481C63.8231 57.1466 64.4184 57.3431 64.9315 57.4076C65.4447 57.4721 66.0253 57.5102 66.3683 57.8973C66.4819 58.0424 66.5634 58.21 66.6074 58.389C66.6513 58.5679 66.6568 58.7541 66.6235 58.9354C66.5926 59.0616 66.5926 59.1933 66.6235 59.3195C66.7642 59.7212 67.4592 59.6596 67.641 59.343C67.7759 59.1113 67.7348 58.9207 68.0486 58.8562C68.2727 58.8383 68.4977 58.8777 68.7025 58.9705C69.2484 59.1579 69.8233 59.2462 70.4003 59.2315C70.7673 58.4488 70.9647 57.5974 70.9796 56.733C70.9945 55.8686 70.8266 55.0109 70.4868 54.216C70.1469 53.4211 69.643 52.707 69.0079 52.1205C68.3728 51.534 67.6209 51.0884 66.8015 50.8128C65.9821 50.5373 65.1137 50.438 64.2533 50.5216C63.3928 50.6051 62.5598 50.8696 61.8087 51.2976C61.0576 51.7257 60.4055 52.3076 59.8951 53.0053C59.3847 53.7031 59.0275 54.5008 58.8469 55.3462H58.844Z" fill="black"/>
<path d="M66.6207 59.1582C66.59 59.0319 66.59 58.9002 66.6207 58.774C66.6542 58.5933 66.6488 58.4074 66.6048 58.229C66.5608 58.0505 66.4792 57.8834 66.3656 57.7389C66.0225 57.3489 65.4448 57.3137 64.9287 57.2463C64.4126 57.1788 63.8203 56.9853 63.6737 56.4868C63.5681 56.1291 63.7294 55.6921 63.5007 55.3989C63.3936 55.279 63.2556 55.1908 63.1019 55.1438C62.7266 54.9741 62.3047 54.9369 61.9055 55.0382C61.2193 55.2611 60.8088 56.0646 60.0963 56.1642C59.9886 56.1853 59.8771 56.173 59.7766 56.1291C59.5069 55.9942 59.4834 55.6042 59.2899 55.3842C58.9644 55.0412 58.3457 55.264 57.9498 55.0089C57.7097 54.8085 57.5546 54.5245 57.5158 54.2143C57.3385 53.6392 57.2983 53.0306 57.3985 52.4373C57.6302 51.4432 58.5216 50.76 59.0875 49.9067C59.6183 49.1149 59.9174 48.1121 60.7121 47.5872C61.5067 47.0623 62.5301 47.1796 63.4303 47.4464C63.8442 47.5941 64.2699 47.706 64.7029 47.7807C65.4272 47.8687 66.1544 47.6722 66.8817 47.6488C67.9124 47.6155 68.9251 47.9248 69.7612 48.5285C69.9498 48.6515 70.1098 48.8134 70.2304 49.0035C70.3513 49.273 70.4228 49.562 70.4415 49.8568C70.5272 50.4104 70.7194 50.9422 71.0075 51.4227C71.2303 51.8009 71.5148 52.1411 71.7171 52.5311C71.9433 52.9134 72.0126 53.3685 71.9106 53.8008C71.8402 54.0207 71.7054 54.2201 71.6526 54.4459C71.5353 54.9679 71.8784 55.4693 72.1129 55.9502C72.3412 56.3904 72.4494 56.8829 72.4267 57.3782C72.4142 57.6251 72.3507 57.8666 72.2402 58.0877C72.1296 58.3087 71.9745 58.5045 71.7845 58.6626C71.3863 58.9389 70.9115 59.0835 70.4268 59.076C69.8391 59.0939 69.253 59.0055 68.6968 58.8151C68.4916 58.7237 68.2669 58.6844 68.0429 58.7007C67.7291 58.7652 67.7702 58.9558 67.6353 59.1875C67.4564 59.4983 66.7644 59.5599 66.6207 59.1582Z" fill="#3F3D56"/>
<path opacity="0.1" d="M63.3159 93.7449L66.7731 91.0413L72.2096 85.684L70.4151 85.6019C70.2044 85.7924 70.0699 86.0528 70.0368 86.3349C70.0104 86.9889 68.5706 86.3789 67.817 86.7543C67.0634 87.1296 63.398 91.8272 62.7558 91.7949C62.1136 91.7627 61.6034 91.4695 61.3336 91.924L61.316 91.9533C61.209 92.0766 61.065 92.162 60.9055 92.1967L63.3159 93.7449Z" fill="black"/>
<path d="M56.3516 93.5573L58.0875 99.1024L58.3602 99.9821L59.1871 99.7563L61.011 99.2548L69.1277 97.0263C70.1501 96.9819 71.1507 96.7158 72.06 96.2463C73.5945 95.3865 75.3505 95.0037 77.1037 95.1467C78.1769 95.2464 79.3703 94.783 80.3615 92.9533C80.3615 92.9533 82.6106 86.3116 76.9336 84.4085C71.2566 82.5054 70.9839 85.4201 70.9839 85.4201L70.9047 85.467C70.6848 85.6078 70.069 86.0535 70.0455 86.5872C70.0191 87.2411 68.5794 86.6341 67.8258 87.0065C67.0722 87.3789 63.4068 92.0794 62.7646 92.0472C62.1224 92.0149 61.6122 91.7217 61.3424 92.1791L61.3248 92.2085C61.1254 92.4812 60.5301 92.5457 60.1343 92.5545C60.0112 92.5609 59.8879 92.5609 59.7648 92.5545L59.712 92.5691L59.3015 92.6923L56.3516 93.5573Z" fill="#65617D"/>
<path opacity="0.1" d="M56.8003 82.7926L57.6389 82.9246L57.9879 79.4703C57.9879 79.4703 57.6037 79.4117 57.1258 79.3002C57.2519 79.7841 56.9645 81.6461 56.8003 82.7926Z" fill="black"/>
<path opacity="0.1" d="M78.7049 66.6474C78.7049 66.6474 81.1945 65.9231 80.5787 72.9959C80.1512 77.3127 78.3161 81.3692 75.3562 84.5405C75.3562 84.5405 70.0516 86.8687 67.6677 86.4934C65.2837 86.1181 63.5448 86.0389 63.5448 86.0389C62.7937 85.6596 61.9718 85.4409 61.1315 85.3967C59.7944 85.3439 56.9823 84.517 56.9265 84.2443C56.8708 83.9716 57.6244 80.0393 57.3019 79.7461C57.3019 79.7461 61.0523 79.8986 61.4277 80.1684C61.803 80.4381 62.3396 80.2475 62.7413 80.1684C63.1431 80.0892 64.3747 79.0218 66.8114 79.9602C66.8114 79.9602 67.6413 80.0393 67.9638 79.8253C68.2268 79.7028 68.5262 79.6839 68.8025 79.7725C69.0109 79.7032 69.2084 79.6045 69.3889 79.4793C69.4681 79.3737 70.1132 79.4793 70.1132 79.4793C70.1516 79.4964 70.1933 79.5051 70.2353 79.5048C70.2774 79.5044 70.3189 79.495 70.357 79.4772C70.3951 79.4594 70.4289 79.4336 70.4562 79.4016C70.4834 79.3696 70.5035 79.3321 70.5149 79.2916C70.5997 79.0731 70.7274 78.8737 70.8903 78.7051C70.8903 78.7051 71.6116 74.6351 72.9781 73.1073C73.0872 73.012 73.171 72.8911 73.2222 72.7556C73.2734 72.62 73.2902 72.4739 73.2713 72.3303C73.1599 71.8963 75.4911 65.7882 78.7049 66.6474Z" fill="black"/>
<path d="M78.6375 66.1019C78.6375 66.1019 81.13 65.3806 80.5142 72.4504C80.0878 76.7675 78.2526 80.8243 75.2917 83.995C75.2917 83.995 69.9872 86.3262 67.6032 85.9508C65.2192 85.5755 63.4774 85.4875 63.4774 85.4875C62.7274 85.108 61.9064 84.8893 61.067 84.8453C59.7269 84.7896 56.9148 83.9656 56.8621 83.6929C56.8093 83.4202 57.557 79.488 57.2374 79.1918C57.2374 79.1918 60.9878 79.3472 61.3632 79.617C61.7385 79.8868 62.2722 79.6932 62.6739 79.617C63.0757 79.5408 64.3072 78.4705 66.7469 79.4059C66.7469 79.4059 67.5768 79.488 67.8964 79.2739C68.1595 79.1524 68.4582 79.1325 68.735 79.2182C68.9429 79.1473 69.1401 79.0487 69.3215 78.925C69.4007 78.8165 70.0429 78.925 70.0429 78.925C70.0813 78.9421 70.1229 78.9508 70.165 78.9505C70.207 78.9501 70.2485 78.9407 70.2866 78.9229C70.3247 78.9051 70.3585 78.8793 70.3858 78.8473C70.4131 78.8153 70.4331 78.7778 70.4446 78.7373C70.5294 78.5188 70.657 78.3194 70.8199 78.1508C70.8199 78.1508 71.5442 74.0808 72.9107 72.553C73.0198 72.4577 73.1036 72.3368 73.1548 72.2013C73.2059 72.0657 73.2228 71.9196 73.2039 71.776C73.0954 71.3537 75.4237 65.2545 78.6375 66.1019Z" fill="#3F3D56"/>
<path opacity="0.1" d="M59.2927 92.6776L62.8291 96.9588L62.8526 96.9353C62.879 96.8532 63.2279 95.9442 63.1458 95.8885C63.0637 95.8328 62.4508 94.4956 61.2193 93.9326C60.5928 93.6272 60.0668 93.149 59.7032 92.5544L59.2927 92.6776Z" fill="black"/>
<path opacity="0.1" d="M59.3395 100.088L59.7266 100.307C59.7266 100.307 60.6239 99.589 61.5182 98.8648C62.4126 98.1405 63.2776 97.4308 63.2776 97.3986C63.2776 97.3663 63.653 96.4075 63.5709 96.3547C63.4888 96.3019 63.3451 95.9559 63.0049 95.5248C60.6063 94.8533 62.1252 96.5189 62.3364 96.5951C62.3364 96.5951 59.4187 95.9236 59.2574 99.1052C59.2435 99.4348 59.2711 99.7648 59.3395 100.088V100.088Z" fill="black"/>
<path d="M62.2986 101.433L62.8088 101.727L67.9785 101.859C68.5581 102.211 69.171 102.506 69.8083 102.738C69.8927 102.763 69.979 102.782 70.0663 102.794C70.5462 102.833 71.028 102.842 71.509 102.82C71.9049 102.82 72.2098 102.794 72.2098 102.794C72.2098 102.794 71.9664 96.2755 71.7817 95.5893C71.6937 95.2609 71.2597 95.3313 70.8316 95.4955C70.5107 95.6268 70.2008 95.7837 69.905 95.9647C69.905 95.9647 67.7116 96.1787 67.3627 96.3664C67.0137 96.5541 66.0226 96.2579 65.4068 96.3664C64.791 96.4749 63.6914 95.6421 63.6914 95.6421C60.6916 94.651 62.3807 96.4983 62.5947 96.5804C62.5947 96.5804 59.6624 95.9089 59.5129 99.0905C59.3633 102.272 62.2986 101.433 62.2986 101.433Z" fill="#3F3D56"/>
<path d="M69.7732 98.9176C69.8289 100.266 70.8816 101.941 71.5091 102.826C71.9049 102.826 72.2099 102.8 72.2099 102.8C72.2099 102.8 71.9665 96.2815 71.7818 95.5953C71.6938 95.2669 71.2598 95.3372 70.8317 95.5014C70.3127 96.475 69.7262 97.8268 69.7732 98.9176Z" fill="#565387"/>
<path opacity="0.1" d="M69.7732 98.9176C69.8289 100.266 70.8816 101.941 71.5091 102.826C71.9049 102.826 72.2099 102.8 72.2099 102.8C72.2099 102.8 71.9665 96.2815 71.7818 95.5953C71.6938 95.2669 71.2598 95.3372 70.8317 95.5014C70.3127 96.475 69.7262 97.8268 69.7732 98.9176Z" fill="black"/>
<path opacity="0.05" d="M68.8872 99.0965C69.2449 100.398 69.239 101.859 69.8079 102.744C69.8924 102.769 69.9786 102.788 70.066 102.8C70.5458 102.839 71.0277 102.848 71.5087 102.826C71.9045 102.826 72.2095 102.8 72.2095 102.8C72.2095 102.8 71.9661 96.2815 71.7814 95.5953C71.6934 95.2669 71.2594 95.3372 70.8313 95.5014C70.5104 95.6328 70.2005 95.7897 69.9047 95.9706C69.9047 95.9706 68.4327 97.428 68.8872 99.0965Z" fill="black"/>
<path opacity="0.1" d="M51.053 85.8804C51.053 85.8804 53.6217 86.7132 55.7975 89.6748L51.053 85.8804Z" fill="black"/>
<g opacity="0.1">
<path opacity="0.1" d="M71.9193 53.7363C71.9193 53.7569 71.9193 53.7745 71.9046 53.795C71.8799 53.8714 71.8495 53.9459 71.8137 54.0178C71.842 53.9215 71.8773 53.8275 71.9193 53.7363Z" fill="black"/>
<path opacity="0.1" d="M57.3926 52.4373C57.4362 52.2497 57.5032 52.0685 57.592 51.8977C57.592 51.9417 57.5627 51.9886 57.551 52.0355C57.4533 52.6292 57.4944 53.2374 57.6712 53.8125C57.7101 54.1221 57.864 54.4058 58.1023 54.6072C58.5011 54.8623 59.1198 54.6394 59.4453 54.9825C59.6505 55.2024 59.6623 55.5924 59.932 55.7273C60.0325 55.7713 60.144 55.7835 60.2517 55.7625C60.9642 55.6628 61.3747 54.8594 62.0609 54.6365C62.46 54.5337 62.8823 54.571 63.2573 54.7421C63.411 54.7891 63.549 54.8773 63.6561 54.9972C63.8848 55.2904 63.7235 55.7273 63.8291 56.0851C63.9757 56.5836 64.571 56.78 65.0841 56.8445C65.5973 56.9091 66.1779 56.9472 66.521 57.3372C66.6346 57.4817 66.7162 57.6487 66.7602 57.8272C66.8042 58.0057 66.8096 58.1915 66.7761 58.3723C66.7454 58.4985 66.7454 58.6302 66.7761 58.7564C66.9168 59.1581 67.6118 59.0966 67.7936 58.7799C67.9285 58.5482 67.8874 58.3576 68.2012 58.2931C68.4253 58.2768 68.6499 58.3161 68.8551 58.4075C69.4114 58.5979 69.9975 58.6863 70.5852 58.6684C71.0698 58.6759 71.5446 58.5313 71.9429 58.255C72.117 58.1183 72.2591 57.9451 72.3592 57.7477C72.2687 58.1068 72.0626 58.4262 71.7728 58.6567C71.3745 58.933 70.8998 59.0776 70.4151 59.0702C69.8274 59.0881 69.2413 58.9997 68.685 58.8092C68.4798 58.7178 68.2552 58.6785 68.0311 58.6948C67.7174 58.7593 67.7584 58.95 67.6265 59.1816C67.4417 59.4983 66.7468 59.5599 66.606 59.1581C66.5767 59.0318 66.5767 58.9004 66.606 58.774C66.6395 58.5933 66.6341 58.4074 66.5901 58.2289C66.5461 58.0504 66.4646 57.8834 66.3509 57.7389C66.0078 57.3489 65.4302 57.3137 64.9141 57.2463C64.398 57.1788 63.8056 56.9853 63.659 56.4868C63.5535 56.1291 63.7147 55.6921 63.486 55.3989C63.3797 55.2795 63.2428 55.1913 63.0902 55.1438C62.7138 54.9741 62.2911 54.9369 61.8908 55.0382C61.2076 55.2611 60.7941 56.0645 60.0816 56.1642C59.9739 56.1853 59.8625 56.173 59.762 56.1291C59.4922 55.9942 59.4687 55.6042 59.2752 55.3842C58.9497 55.0412 58.3339 55.264 57.9351 55.0089C57.695 54.8085 57.5399 54.5245 57.5011 54.2142C57.3268 53.6385 57.2896 53.0299 57.3926 52.4373V52.4373Z" fill="black"/>
</g>
<path opacity="0.1" d="M72.3357 73.8785C71.8431 74.5412 71.283 75.154 70.849 75.8519C70.3776 76.5399 70.1486 77.3653 70.198 78.1978C70.6467 77.7374 70.8549 77.0982 71.1364 76.5205C71.6173 75.5411 72.3328 74.7113 72.9397 73.814C73.0541 73.641 73.7931 72.641 73.4207 72.6C73.1098 72.556 72.5028 73.6527 72.3357 73.8785Z" fill="black"/>
<path d="M74.9748 136.621C75.3297 137.759 75.6874 138.9 76.1302 140.005C76.9279 141.927 77.9318 143.757 79.1241 145.462C79.8928 146.585 80.7188 147.668 81.599 148.706C82.7015 150.005 83.9448 151.312 84.3202 152.972C84.546 153.931 84.4697 154.931 84.5636 155.904C84.6574 156.878 84.977 157.922 85.7717 158.508C86.3376 158.928 87.0619 159.054 87.7569 159.162C88.2554 159.241 88.877 159.268 89.1351 158.837C89.2253 158.661 89.2725 158.466 89.2729 158.268L89.3931 156.834C89.4166 156.523 89.528 156.127 89.8388 156.113C90.1496 156.098 90.3051 156.511 90.569 156.699C90.9208 156.945 91.4487 156.699 91.6422 156.327C91.8029 155.923 91.8133 155.476 91.6715 155.066C91.458 154.25 91.074 153.488 90.5448 152.831C90.0157 152.174 89.3533 151.636 88.6014 151.254C88.0792 151.043 87.5784 150.783 87.1059 150.477C86.626 150.059 86.2282 149.556 85.933 148.993C83.2118 144.512 80.4759 140.008 78.5552 135.132C78.1768 134.26 77.9212 133.341 77.7957 132.399C77.7019 131.44 77.8515 130.475 77.913 129.513C78.0267 127.786 77.8664 126.051 77.438 124.373C77.3444 123.933 77.1789 123.511 76.9483 123.124C76.1566 121.925 74.3092 121.746 73.1363 122.573C72.7044 122.905 72.3463 123.323 72.0848 123.801C71.8233 124.279 71.6641 124.807 71.6173 125.35C71.5323 126.323 72.0924 127.332 72.3768 128.238C73.2389 131.035 74.1049 133.83 74.9748 136.621Z" fill="#A1616A"/>
<path opacity="0.05" d="M74.9748 136.621C75.3297 137.759 75.6874 138.9 76.1302 140.005C76.9279 141.927 77.9318 143.757 79.1241 145.462C79.8928 146.585 80.7188 147.668 81.599 148.706C82.7015 150.005 83.9448 151.312 84.3202 152.972C84.546 153.931 84.4697 154.931 84.5636 155.904C84.6574 156.878 84.977 157.922 85.7717 158.508C86.3376 158.928 87.0619 159.054 87.7569 159.162C88.2554 159.241 88.877 159.268 89.1351 158.837C89.2253 158.661 89.2725 158.466 89.2729 158.268L89.3931 156.834C89.4166 156.523 89.528 156.127 89.8388 156.113C90.1496 156.098 90.3051 156.511 90.569 156.699C90.9208 156.945 91.4487 156.699 91.6422 156.327C91.8029 155.923 91.8133 155.476 91.6715 155.066C91.458 154.25 91.074 153.488 90.5448 152.831C90.0157 152.174 89.3533 151.636 88.6014 151.254C88.0792 151.043 87.5784 150.783 87.1059 150.477C86.626 150.059 86.2282 149.556 85.933 148.993C83.2118 144.512 80.4759 140.008 78.5552 135.132C78.1768 134.26 77.9212 133.341 77.7957 132.399C77.7019 131.44 77.8515 130.475 77.913 129.513C78.0267 127.786 77.8664 126.051 77.438 124.373C77.3444 123.933 77.1789 123.511 76.9483 123.124C76.1566 121.925 74.3092 121.746 73.1363 122.573C72.7044 122.905 72.3463 123.323 72.0848 123.801C71.8233 124.279 71.6641 124.807 71.6173 125.35C71.5323 126.323 72.0924 127.332 72.3768 128.238C73.2389 131.035 74.1049 133.83 74.9748 136.621Z" fill="black"/>
<path d="M57.8795 184.53C58.4101 184.714 58.9742 184.782 59.5334 184.729C59.5744 184.272 60.1902 184.169 60.6477 184.193C60.8689 184.185 61.0882 184.236 61.284 184.339C61.3983 184.412 61.4863 184.518 61.5977 184.594C61.7964 184.703 62.0192 184.761 62.2458 184.761L64.6268 184.961C65.6883 185.052 66.7938 185.134 67.7879 184.756C67.9859 184.693 68.1619 184.575 68.2952 184.415C68.5649 184.028 68.2952 183.474 67.9228 183.193C67.5504 182.911 67.0695 182.785 66.6941 182.498C65.8672 181.867 65.7528 180.688 65.3159 179.744C65.0054 179.149 64.6222 178.594 64.1753 178.093C63.8514 177.663 63.474 177.276 63.0522 176.941C62.0962 176.252 60.9995 176.266 59.8765 176.167C59.0847 176.096 58.3399 176.049 57.7711 176.753C57.0673 177.633 57.3488 179.392 57.3928 180.419C57.4477 181.8 57.6105 183.174 57.8795 184.53Z" fill="#514E7F"/>
<path opacity="0.05" d="M57.8795 184.53C58.4101 184.714 58.9742 184.782 59.5334 184.729C59.5744 184.272 60.1902 184.169 60.6477 184.193C60.8689 184.185 61.0882 184.236 61.284 184.339C61.3983 184.412 61.4863 184.518 61.5977 184.594C61.7964 184.703 62.0192 184.761 62.2458 184.761L64.6268 184.961C65.6883 185.052 66.7938 185.134 67.7879 184.756C67.9859 184.693 68.1619 184.575 68.2952 184.415C68.5649 184.028 68.2952 183.474 67.9228 183.193C67.5504 182.911 67.0695 182.785 66.6941 182.498C65.8672 181.867 65.7528 180.688 65.3159 179.744C65.0054 179.149 64.6222 178.594 64.1753 178.093C63.8514 177.663 63.474 177.276 63.0522 176.941C62.0962 176.252 60.9995 176.266 59.8765 176.167C59.0847 176.096 58.3399 176.049 57.7711 176.753C57.0673 177.633 57.3488 179.392 57.3928 180.419C57.4477 181.8 57.6105 183.174 57.8795 184.53Z" fill="black"/>
<path d="M58.841 138.214C58.1137 138.448 57.797 139.354 57.9319 140.108C58.0668 140.862 58.5184 141.513 58.8908 142.181C59.9523 144.078 60.4097 146.248 61.3012 148.228C61.9668 149.694 62.867 151.072 63.5239 152.556C64.1807 154.039 64.5883 155.714 64.1895 157.288C63.996 158.054 63.6206 158.755 63.3714 159.508C63.1247 160.325 62.9635 161.165 62.8905 162.015C62.5676 164.903 62.5097 167.814 62.7175 170.713C62.7193 171.066 62.7931 171.415 62.9345 171.739C63.084 172.032 63.3421 172.325 63.2277 172.619C63.1779 172.739 63.0694 172.827 63.0166 172.944C62.8641 173.273 63.1691 173.622 63.4476 173.856C63.3979 173.944 63.331 174.022 63.2509 174.084C63.1709 174.145 63.0792 174.191 62.9814 174.217C63.1812 174.344 63.3347 174.532 63.4192 174.753C63.5037 174.975 63.5147 175.217 63.4506 175.445C63.2043 175.484 63.1896 175.862 63.345 176.061C63.5004 176.261 63.7467 176.384 63.8582 176.61C63.9238 176.793 63.9166 176.996 63.8381 177.174C63.7596 177.353 63.6157 177.495 63.4359 177.571C63.0696 177.712 62.67 177.743 62.2864 177.659C61.6362 177.569 60.994 177.428 60.3658 177.237C60.0373 177.173 59.7432 176.992 59.5374 176.728C59.3317 176.464 59.228 176.134 59.2456 175.8C59.1004 174.607 59.0563 173.403 59.1137 172.202C59.2163 166.385 59.1137 160.561 58.8615 154.746C58.7589 152.4 58.0551 150.128 57.149 147.97C56.6481 146.867 56.0912 145.79 55.4805 144.744C54.1727 142.351 53.0174 139.7 53.3165 136.988C53.3487 136.695 53.4543 136.346 53.7446 136.299C53.858 136.287 53.9727 136.306 54.0759 136.355C54.6783 136.636 55.2612 136.957 55.8207 137.316C56.74 137.855 57.7764 138.163 58.841 138.214Z" fill="#464353"/>
<path opacity="0.05" d="M58.841 138.214C58.1137 138.448 57.797 139.354 57.9319 140.108C58.0668 140.862 58.5184 141.513 58.8908 142.181C59.9523 144.078 60.4097 146.248 61.3012 148.228C61.9668 149.694 62.867 151.072 63.5239 152.556C64.1807 154.039 64.5883 155.714 64.1895 157.288C63.996 158.054 63.6206 158.755 63.3714 159.508C63.1247 160.325 62.9635 161.165 62.8905 162.015C62.5676 164.903 62.5097 167.814 62.7175 170.713C62.7193 171.066 62.7931 171.415 62.9345 171.739C63.084 172.032 63.3421 172.325 63.2277 172.619C63.1779 172.739 63.0694 172.827 63.0166 172.944C62.8641 173.273 63.1691 173.622 63.4476 173.856C63.3979 173.944 63.331 174.022 63.2509 174.084C63.1709 174.145 63.0792 174.191 62.9814 174.217C63.1812 174.344 63.3347 174.532 63.4192 174.753C63.5037 174.975 63.5147 175.217 63.4506 175.445C63.2043 175.484 63.1896 175.862 63.345 176.061C63.5004 176.261 63.7467 176.384 63.8582 176.61C63.9238 176.793 63.9166 176.996 63.8381 177.174C63.7596 177.353 63.6157 177.495 63.4359 177.571C63.0696 177.712 62.67 177.743 62.2864 177.659C61.6362 177.569 60.994 177.428 60.3658 177.237C60.0373 177.173 59.7432 176.992 59.5374 176.728C59.3317 176.464 59.228 176.134 59.2456 175.8C59.1004 174.607 59.0563 173.403 59.1137 172.202C59.2163 166.385 59.1137 160.561 58.8615 154.746C58.7589 152.4 58.0551 150.128 57.149 147.97C56.6481 146.867 56.0912 145.79 55.4805 144.744C54.1727 142.351 53.0174 139.7 53.3165 136.988C53.3487 136.695 53.4543 136.346 53.7446 136.299C53.858 136.287 53.9727 136.306 54.0759 136.355C54.6783 136.636 55.2612 136.957 55.8207 137.316C56.74 137.855 57.7764 138.163 58.841 138.214Z" fill="black"/>
<path d="M49.009 131.141C48.6298 130.897 48.1925 130.76 47.7422 130.742C47.2202 130.768 46.7745 131.112 46.3669 131.44C45.884 131.811 45.4256 132.212 44.9946 132.642C44.1022 133.593 43.4804 134.766 43.1937 136.039C42.907 137.311 42.9659 138.637 43.3642 139.879C43.7953 141.172 44.5841 142.313 45.3641 143.43L46.9475 145.706C49.3638 149.175 51.78 152.644 54.3106 156.03C54.3112 156.114 54.3382 156.195 54.3877 156.262C54.4372 156.329 54.5068 156.378 54.5863 156.403C54.6772 156.426 54.7915 156.423 54.8472 156.5C54.873 156.547 54.8842 156.601 54.8795 156.655C54.8738 156.906 54.8263 157.153 54.7387 157.388C54.6976 157.466 54.6872 157.556 54.7094 157.64C54.7915 157.831 55.1375 157.722 55.249 157.901C55.3223 158.019 55.2314 158.171 55.1346 158.271C55.0378 158.37 54.9176 158.482 54.9352 158.62C54.9528 158.758 55.1932 158.913 55.1844 159.083C55.1844 159.183 55.0965 159.259 55.0349 159.338C54.9487 159.464 54.9094 159.617 54.9239 159.769C54.9384 159.921 55.0057 160.063 55.1141 160.171C55.2812 161.825 54.381 163.396 54.2021 165.044C53.9089 167.648 55.0965 170.191 55.2402 172.803C55.2316 173.097 55.2876 173.39 55.4044 173.66C55.6478 174.111 56.2841 174.384 56.2518 174.897C56.2058 175.108 56.146 175.316 56.0729 175.519C56.0231 175.812 56.1638 176.105 56.1697 176.398C56.1756 176.692 55.9146 177.052 55.639 176.935C55.8462 177.627 56.0309 178.325 56.1932 179.029L61.7353 179.486C61.795 178.988 61.7782 178.484 61.6854 177.991C61.5711 177.454 61.3306 176.956 61.2045 176.425C61.1225 176.164 61.0995 175.887 61.137 175.616C61.1745 175.345 61.2717 175.085 61.4215 174.856C61.277 174.858 61.1366 174.808 61.025 174.717C60.9134 174.625 60.8378 174.497 60.8116 174.355C60.7652 174.069 60.7702 173.777 60.8262 173.492C60.9729 172.047 60.3659 170.622 60.3835 169.17C60.4011 168.027 60.8028 166.927 61.0051 165.804C61.4391 163.399 60.9875 160.793 62.0578 158.596C62.7059 157.274 63.6032 155.808 62.8759 154.526C62.5182 153.893 61.8848 153.459 61.4714 152.861C61.1343 152.295 60.8814 151.684 60.7207 151.045C59.8674 148.406 58.4863 145.955 57.2752 143.445C56.9391 142.816 56.6895 142.144 56.5333 141.448C56.4478 140.837 56.4164 140.22 56.4395 139.604C56.4395 138.497 56.3719 137.391 56.2372 136.293C56.2098 135.812 56.0724 135.343 55.8354 134.924C55.5961 134.606 55.2974 134.338 54.9557 134.135C53.1377 132.889 50.9736 132.176 49.009 131.141Z" fill="#464353"/>
<path d="M55.6507 186.562C56.1829 186.744 56.7476 186.811 57.3075 186.758C57.3486 186.301 57.9614 186.198 58.4189 186.222C58.6401 186.214 58.8594 186.265 59.0552 186.368C59.1695 186.442 59.2575 186.55 59.3719 186.624C59.57 186.734 59.7932 186.791 60.0199 186.791L62.398 186.99C63.4625 187.081 64.565 187.166 65.562 186.785C65.7597 186.723 65.935 186.605 66.0664 186.445C66.3361 186.058 66.0664 185.506 65.694 185.225C65.3216 184.943 64.8407 184.814 64.4683 184.527C63.6384 183.896 63.527 182.721 63.0871 181.776C62.7794 181.179 62.3971 180.623 61.9494 180.123C61.6244 179.693 61.246 179.307 60.8234 178.973C59.8704 178.281 58.7707 178.296 57.6506 178.196C56.8559 178.126 56.1111 178.082 55.5452 178.782C54.8414 179.662 55.1229 181.422 55.164 182.451C55.2191 183.832 55.3818 185.206 55.6507 186.562Z" fill="#514E7F"/>
<path d="M80.2151 121.543C83.2468 121.543 85.7045 119.086 85.7045 116.054C85.7045 113.022 83.2468 110.565 80.2151 110.565C77.1835 110.565 74.7258 113.022 74.7258 116.054C74.7258 119.086 77.1835 121.543 80.2151 121.543Z" fill="#A1616A"/>
<path d="M75.0365 117.684C74.2506 118.362 73.1217 118.412 72.0895 118.517C69.8824 118.744 67.734 119.366 65.7469 120.353C65.4719 120.471 65.2228 120.643 65.0138 120.857C64.8354 121.09 64.7085 121.358 64.6414 121.643C64.4526 122.261 64.3819 122.908 64.4332 123.552C64.5051 124.176 64.6847 124.784 64.9639 125.347C65.7258 126.924 66.9014 128.265 68.3654 129.226C68.6234 129.418 68.9162 129.559 69.2275 129.64C69.9489 129.789 70.6468 129.373 71.3594 129.185C72.0075 129.016 72.6906 129.037 73.3269 129.247C73.9134 129.446 74.5556 129.81 75.1362 129.566C75.5078 129.358 75.7966 129.029 75.9543 128.634C76.5151 127.574 77.0154 126.483 77.4527 125.367C77.6098 124.931 77.791 124.505 77.9952 124.089C78.6315 122.878 79.7311 121.942 80.2795 120.684C80.3352 120.588 80.3688 120.481 80.3779 120.371C80.387 120.26 80.3715 120.149 80.3323 120.045C80.2306 119.905 80.0899 119.798 79.9276 119.737C79.1168 119.273 78.3779 118.693 77.7342 118.016C77.3736 117.67 76.7108 116.734 76.1918 116.652C75.6083 116.553 75.4324 117.344 75.0365 117.684Z" fill="#A1616A"/>
<path d="M75.1653 128.839C74.529 129.132 73.7783 129.006 73.0893 128.863C71.3123 128.49 69.5147 128.115 67.8697 127.347C67.3558 127.15 66.9104 126.807 66.5883 126.361C66.3882 125.98 66.2665 125.562 66.2305 125.133L65.9373 123.08C65.8317 122.367 66.0135 121.708 66.0311 120.986C66.0423 120.906 66.0375 120.825 66.0168 120.747C65.9962 120.669 65.9602 120.596 65.9109 120.532C65.8105 120.447 65.6809 120.406 65.5502 120.417C64.7263 120.432 64.2278 121.297 63.6501 121.884C63.3162 122.222 62.9172 122.489 62.4772 122.669C61.9493 122.886 61.3042 123.039 61.0843 123.567C60.9963 123.787 61.0081 124.036 60.9142 124.256C60.5448 125.136 58.9701 124.842 58.5684 125.722C58.454 125.968 58.4628 126.276 58.2751 126.47C58.0875 126.663 57.7356 126.66 57.4453 126.707C56.2987 126.895 55.7445 128.217 54.7651 128.842C53.9412 129.37 52.8796 129.358 51.9911 129.769C51.4985 129.997 51.0616 130.355 50.5397 130.505C50.0177 130.654 49.4283 130.575 48.8682 130.59C48.8085 130.584 48.7483 130.591 48.6913 130.609C48.6342 130.628 48.5817 130.658 48.5369 130.698C48.5021 130.751 48.4791 130.811 48.4695 130.874C48.4599 130.937 48.4638 131.001 48.4812 131.062C48.7527 132.796 49.4712 134.429 50.5659 135.801C51.6606 137.173 53.0937 138.236 54.7241 138.885C54.9133 138.945 55.093 139.032 55.2578 139.143C55.7563 139.516 55.8442 140.316 56.4102 140.58C56.6144 140.652 56.8346 140.666 57.0463 140.62C57.2579 140.575 57.4529 140.472 57.6095 140.322C57.9217 140.021 58.2155 139.702 58.4892 139.366C59.0059 138.826 59.6842 138.469 60.4216 138.349C61.1019 138.24 61.8614 138.319 62.4126 137.9C62.6381 137.693 62.8479 137.47 63.0402 137.231C63.4486 136.85 63.9334 136.56 64.4623 136.381C65.9077 135.81 67.4353 135.474 68.9869 135.387C70.4326 135.308 71.9192 135.44 73.2857 134.971C73.6405 134.861 73.9675 134.676 74.2446 134.428C74.5384 134.11 74.7569 133.73 74.8838 133.317C75.3768 131.876 75.474 130.33 75.1653 128.839V128.839Z" fill="#9B2990"/>
<path d="M68.09 120.749C68.4947 120.711 68.9023 120.749 69.3099 120.749C69.7878 120.749 70.26 120.632 70.7379 120.629C71.4948 120.641 72.228 120.895 72.8304 121.353C73.4328 121.812 73.873 122.451 74.0866 123.177C74.1269 123.293 74.134 123.418 74.1072 123.537C74.0914 123.597 74.0549 123.648 74.0043 123.683C73.9537 123.717 73.8923 123.732 73.8315 123.725C73.6729 123.291 73.4653 122.877 73.2128 122.491C72.7583 121.87 72.1105 121.418 71.3713 121.206C70.6343 120.997 69.8578 120.969 69.1075 121.124C68.7938 121.183 68.4888 121.265 68.1839 121.35L66.7177 121.755C66.4479 121.828 66.1752 121.901 65.9142 121.998C65.7119 122.074 65.3659 122.353 65.1665 122.365C64.8967 122.365 65.1137 122.13 65.2339 121.972C65.4734 121.645 65.8085 121.401 66.1928 121.274C66.8022 121.024 67.4391 120.848 68.09 120.749V120.749Z" fill="#9B2990"/>
<path d="M71.7905 137.237C72.1453 138.375 72.5001 139.516 72.9458 140.621C73.7424 142.544 74.7463 144.374 75.9397 146.078C76.7084 147.201 77.5345 148.284 78.4146 149.321C79.5142 150.62 80.7429 151.928 81.1358 153.585C81.3616 154.547 81.2854 155.547 81.3792 156.517C81.473 157.488 81.7927 158.535 82.5844 159.121C83.1533 159.538 83.8775 159.664 84.5725 159.775C85.0681 159.854 85.6897 159.881 85.9507 159.45C86.0392 159.273 86.0864 159.078 86.0885 158.881L86.2058 157.447C86.2322 157.136 86.3436 156.74 86.6515 156.726C86.9594 156.711 87.1207 157.124 87.3846 157.312C87.7365 157.558 88.2643 157.312 88.4578 156.94C88.6173 156.536 88.6276 156.089 88.4872 155.679C88.2726 154.863 87.8882 154.102 87.3592 153.445C86.8301 152.788 86.1683 152.25 85.417 151.867C84.8942 151.655 84.3925 151.395 83.9186 151.09C83.4378 150.672 83.0399 150.168 82.7457 149.603C80.0215 145.125 77.2857 140.621 75.3679 135.742C74.9897 134.871 74.7331 133.953 74.6055 133.012C74.5146 132.053 74.6612 131.088 74.7257 130.126C74.8394 128.399 74.6791 126.664 74.2507 124.986C74.1573 124.545 73.9908 124.123 73.7581 123.737C72.9693 122.535 71.119 122.359 69.9461 123.186C69.5138 123.518 69.1552 123.936 68.8932 124.414C68.6312 124.892 68.4715 125.419 68.4242 125.963C68.3391 126.936 68.9021 127.945 69.1837 128.851C70.0497 131.65 70.9186 134.446 71.7905 137.237Z" fill="#A1616A"/>
<path d="M88.1995 112.172C88.2435 111.714 87.833 111.292 87.3667 110.999C86.8757 110.747 86.4042 110.459 85.9563 110.137C85.5399 109.776 85.3112 109.307 84.8948 108.946C84.4214 108.586 83.8841 108.318 83.3113 108.157C82.0929 107.73 80.8137 107.501 79.5227 107.48C78.2178 107.48 76.8836 107.773 75.9013 108.439C75.6589 108.591 75.4496 108.791 75.2855 109.025C75.1306 109.307 75.0311 109.615 74.9923 109.934C74.7582 110.918 74.4414 111.88 74.0451 112.811C73.6376 113.846 73.2036 114.919 72.2447 115.72C71.2184 116.573 69.6496 117.066 68.9722 118.098C68.8973 118.19 68.8448 118.298 68.8188 118.413C68.7929 118.529 68.7942 118.649 68.8227 118.764C68.9194 119.024 69.2303 119.203 69.5176 119.368C71.1832 120.324 72.62 121.564 73.359 123.045C74.0979 124.526 74.0774 126.27 73.0247 127.634C72.6376 128.138 72.1039 128.736 72.4822 129.244C73.0687 130.015 75.0304 129.572 75.4878 130.387C75.6315 130.648 75.5465 130.944 75.5465 131.229C75.5465 132.085 76.3705 132.845 77.3704 133.24C78.3703 133.636 79.5286 133.73 80.6546 133.78C80.9535 133.108 80.9829 132.347 80.7367 131.654C80.6617 131.505 80.6322 131.336 80.6517 131.17C80.7356 130.986 80.8659 130.826 81.0299 130.707C82.2322 129.569 81.9771 127.898 81.2557 126.546C80.5344 125.194 79.4084 123.96 78.989 122.537C78.7809 121.831 78.7809 121.036 79.3409 120.45C79.6624 120.168 80.0089 119.915 80.376 119.696C81.032 119.251 81.5371 118.617 81.8246 117.878C82.1618 116.943 82.1178 115.825 83.0972 115.195C84.0385 114.608 85.361 114.778 86.402 114.377C87.2025 114.06 88.135 112.843 88.1995 112.172Z" fill="#464353"/>
<path d="M156.882 165.872H152.023C151.687 165.872 151.416 166.144 151.416 166.48V171.339C151.416 171.675 151.687 171.946 152.023 171.946H156.882C157.218 171.946 157.49 171.675 157.49 171.339V166.48C157.49 166.144 157.218 165.872 156.882 165.872Z" fill="#33323D"/>
<path d="M150.808 161.013H147.164C146.829 161.013 146.557 161.285 146.557 161.621V165.265C146.557 165.6 146.829 165.872 147.164 165.872H150.808C151.144 165.872 151.416 165.6 151.416 165.265V161.621C151.416 161.285 151.144 161.013 150.808 161.013Z" fill="#33323D"/>
<path d="M161.741 171.946H158.097C157.761 171.946 157.49 172.218 157.49 172.554V176.198C157.49 176.533 157.761 176.805 158.097 176.805H161.741C162.077 176.805 162.349 176.533 162.349 176.198V172.554C162.349 172.218 162.077 171.946 161.741 171.946Z" fill="#33323D"/>
<path d="M161.742 161.013H159.312C158.977 161.013 158.705 161.285 158.705 161.621V164.05C158.705 164.386 158.977 164.658 159.312 164.658H161.742C162.077 164.658 162.349 164.386 162.349 164.05V161.621C162.349 161.285 162.077 161.013 161.742 161.013Z" fill="#33323D"/>
<path d="M149.594 173.161H147.164C146.829 173.161 146.557 173.433 146.557 173.768V176.198C146.557 176.534 146.829 176.805 147.164 176.805H149.594C149.929 176.805 150.201 176.534 150.201 176.198V173.768C150.201 173.433 149.929 173.161 149.594 173.161Z" fill="#33323D"/>
<path d="M159.919 142.791H148.986C148.342 142.791 147.724 143.047 147.268 143.503C146.813 143.958 146.557 144.576 146.557 145.221V156.154C146.557 156.798 146.813 157.416 147.268 157.872C147.724 158.328 148.342 158.584 148.986 158.584H159.919C160.564 158.584 161.182 158.328 161.637 157.872C162.093 157.416 162.349 156.798 162.349 156.154V145.221C162.349 144.576 162.093 143.958 161.637 143.503C161.182 143.047 160.564 142.791 159.919 142.791ZM157.49 153.117C157.49 153.278 157.426 153.432 157.312 153.546C157.198 153.66 157.044 153.724 156.882 153.724H152.023C151.862 153.724 151.708 153.66 151.594 153.546C151.48 153.432 151.416 153.278 151.416 153.117V148.258C151.416 148.097 151.48 147.942 151.594 147.828C151.708 147.714 151.862 147.65 152.023 147.65H156.882C157.044 147.65 157.198 147.714 157.312 147.828C157.426 147.942 157.49 148.097 157.49 148.258V153.117Z" fill="#33323D"/>
<path d="M141.697 142.791H130.764C130.12 142.791 129.502 143.047 129.046 143.503C128.59 143.958 128.334 144.576 128.334 145.221V156.154C128.334 156.798 128.59 157.416 129.046 157.872C129.502 158.328 130.12 158.584 130.764 158.584H141.697C142.342 158.584 142.96 158.328 143.415 157.872C143.871 157.416 144.127 156.798 144.127 156.154V145.221C144.127 144.576 143.871 143.958 143.415 143.503C142.96 143.047 142.342 142.791 141.697 142.791ZM139.268 153.117C139.268 153.278 139.204 153.433 139.09 153.546C138.976 153.66 138.821 153.724 138.66 153.724H133.801C133.64 153.724 133.485 153.66 133.372 153.546C133.258 153.433 133.194 153.278 133.194 153.117V148.258C133.194 148.097 133.258 147.942 133.372 147.828C133.485 147.714 133.64 147.65 133.801 147.65H138.66C138.821 147.65 138.976 147.714 139.09 147.828C139.204 147.942 139.268 148.097 139.268 148.258V153.117Z" fill="#33323D"/>
<path d="M141.697 161.013H130.764C130.12 161.013 129.502 161.269 129.046 161.725C128.59 162.18 128.334 162.798 128.334 163.443V174.376C128.334 175.02 128.59 175.638 129.046 176.094C129.502 176.55 130.12 176.806 130.764 176.806H141.697C142.342 176.806 142.96 176.55 143.415 176.094C143.871 175.638 144.127 175.02 144.127 174.376V163.443C144.127 162.798 143.871 162.18 143.415 161.725C142.96 161.269 142.342 161.013 141.697 161.013ZM139.268 171.339C139.268 171.5 139.204 171.655 139.09 171.769C138.976 171.882 138.821 171.946 138.66 171.946H133.801C133.64 171.946 133.485 171.882 133.372 171.769C133.258 171.655 133.194 171.5 133.194 171.339V166.48C133.194 166.319 133.258 166.164 133.372 166.05C133.485 165.936 133.64 165.872 133.801 165.872H138.66C138.821 165.872 138.976 165.936 139.09 166.05C139.204 166.164 139.268 166.319 139.268 166.48V171.339Z" fill="#33323D"/>
<defs>
<linearGradient id="paint0_linear_213_1003" x1="64.0607" y1="102.636" x2="64.0607" y2="46.6577" gradientUnits="userSpaceOnUse">
<stop stop-color="#808080" stop-opacity="0.25"/>
<stop offset="0.54" stop-color="#808080" stop-opacity="0.12"/>
<stop offset="1" stop-color="#808080" stop-opacity="0.1"/>
</linearGradient>
</defs>
</svg>
